<svg width="343" height="173" viewBox="0 0 343 173" fill="none" xmlns="http://www.w3.org/2000/svg">
<path d="M228.879 171.432C220.654 171.432 214 164.773 214 156.552C214 148.331 220.659 141.708 228.879 141.708C237.1 141.708 243.724 148.367 243.724 156.587C243.724 164.808 237.065 171.432 228.879 171.432ZM228.879 146.446C223.281 146.446 218.738 150.989 218.738 156.548C218.738 162.106 223.281 166.689 228.879 166.689C234.478 166.689 238.981 162.146 238.981 156.548C238.981 150.949 234.438 146.446 228.879 146.446Z" fill="#FECE00" stroke="#FECE00" stroke-width="2" stroke-miterlimit="10"/>
<path d="M269.806 163.562C269.531 168.145 265.383 170.807 261.661 171.357C261.036 171.437 260.37 171.472 259.74 171.472C255.903 171.472 252.105 169.866 249.754 167.085C248.933 166.104 249.048 164.658 250.029 163.793C251.009 162.972 252.456 163.088 253.281 164.068C255.002 166.064 258.099 167.16 260.996 166.73C262.917 166.455 265.028 165.279 265.148 163.283C265.263 161.522 263.893 159.876 261.976 159.445C261.191 159.25 260.29 159.21 259.39 159.17C257.353 159.055 255.082 158.935 252.966 157.489C250.109 155.532 248.698 151.966 249.559 148.834C250.499 145.426 253.631 142.805 257.353 142.254C260.956 141.744 264.793 142.765 267.575 144.916C268.555 145.701 268.75 147.188 267.965 148.208C267.18 149.188 265.694 149.384 264.673 148.598C262.912 147.188 260.366 146.522 257.979 146.877C256.138 147.152 254.492 148.443 254.062 150.089C253.671 151.46 254.532 152.911 255.628 153.651C256.644 154.357 258.014 154.437 259.62 154.512C260.716 154.592 261.812 154.627 262.988 154.903C267.1 155.803 270.037 159.561 269.802 163.558L269.806 163.562Z" fill="#FECE00" stroke="#FECE00" stroke-width="2" stroke-miterlimit="10"/>
<path d="M299.294 143.2V168.146C299.294 169.476 298.198 170.532 296.907 170.532C295.616 170.532 294.52 169.476 294.52 168.146V158.239H280.071V168.146C280.071 169.476 278.975 170.532 277.684 170.532C276.393 170.532 275.297 169.476 275.297 168.146V143.2C275.297 141.869 276.353 140.813 277.684 140.813C279.015 140.813 280.071 141.869 280.071 143.2V153.501H294.52V143.2C294.52 141.869 295.576 140.813 296.907 140.813C298.238 140.813 299.294 141.869 299.294 143.2Z" fill="#FECE00" stroke="#FECE00" stroke-width="2" stroke-miterlimit="10"/>
<path d="M319.617 171.473C311.431 171.473 304.772 164.778 304.772 156.593C304.772 148.408 311.431 141.749 319.617 141.749C323.299 141.749 326.821 143.08 329.563 145.547C330.543 146.407 330.619 147.898 329.718 148.874C328.858 149.814 327.367 149.89 326.431 149.029C324.55 147.343 322.123 146.443 319.617 146.443C314.018 146.443 309.475 150.986 309.475 156.584C309.475 162.183 314.018 166.726 319.617 166.726C322.203 166.726 324.67 165.785 326.546 164.024C327.487 163.123 328.973 163.203 329.873 164.139C330.734 165.08 330.694 166.566 329.758 167.467C326.977 170.013 323.374 171.459 319.617 171.459V171.473Z" fill="#FECE00" stroke="#FECE00" stroke-width="2" stroke-miterlimit="10"/>
<path d="M338.689 171.512H338.374C337.043 171.512 335.987 170.416 335.987 169.006C335.987 167.595 337.043 166.419 338.374 166.419H338.689C339.98 166.419 341.076 167.595 341.076 169.006C341.076 170.416 339.98 171.512 338.689 171.512Z" fill="#FECE00" stroke="#FECE00" stroke-width="2" stroke-miterlimit="10"/>
<path d="M164.433 102.674V127.919C164.433 131.41 161.765 134.078 158.378 134.078C154.992 134.078 152.115 131.41 152.115 127.919V102.362C152.115 98.3618 148.526 95.2823 144.317 95.2823C139.802 95.2823 136.208 98.3618 136.208 102.362V127.919C136.208 131.41 133.435 134.078 130.153 134.078C126.662 134.078 123.993 131.41 123.993 127.919V102.362C123.993 98.3618 120.399 95.2823 115.988 95.2823C111.576 95.2823 107.982 98.3618 107.982 102.362V128.226C107.982 131.509 105.313 134.281 101.823 134.281C98.5404 134.281 95.6638 131.509 95.6638 128.226V89.0193C95.6638 85.6328 98.5354 82.7612 101.823 82.7612C103.774 82.7612 105.62 83.7861 106.546 85.2268C109.418 83.791 112.601 82.9692 115.988 82.9692C121.429 82.9692 126.355 85.0238 130.153 88.5093C133.742 85.0189 138.673 82.9692 144.317 82.9692C155.299 82.9692 164.433 91.6928 164.433 102.367V102.674Z" fill="#FECE00"/>
<path d="M220.468 88.6133V127.919C220.468 131.103 217.904 133.771 214.517 133.771C211.131 133.771 209.076 131.103 209.076 127.919V126.687C204.665 130.484 199.531 132.742 193.377 132.742C179.623 132.742 168.537 121.656 168.537 108.006C168.537 94.3565 179.623 83.1672 193.377 83.1672C199.536 83.1672 204.665 85.5289 209.076 89.1183V88.6034C209.076 85.4199 211.131 82.7513 214.517 82.7513C217.904 82.7513 220.468 85.4199 220.468 88.6034V88.6133ZM206.205 108.011C206.205 100.931 200.353 95.1833 193.377 95.1833C186.401 95.1833 180.445 100.931 180.445 108.011C180.445 115.091 186.297 120.735 193.377 120.735C200.456 120.735 206.205 115.091 206.205 108.011Z" fill="#FECE00"/>
<path d="M275.99 108.318V127.716C275.99 131.102 273.321 133.875 269.934 133.875C266.548 133.875 263.775 131.102 263.775 127.716V108.318C263.775 101.03 258.438 95.1829 251.972 95.1829C243.966 95.1829 239.862 103.189 239.862 110.269V127.716C239.862 131.102 237.089 133.875 233.703 133.875C230.317 133.875 227.544 131.102 227.544 127.716V88.5089C227.544 85.1224 230.317 82.3499 233.703 82.3499C236.372 82.3499 238.629 84.0926 239.451 86.5582C243.145 84.1966 247.353 82.8648 251.972 82.8648C265.211 82.8648 275.99 94.257 275.99 108.318Z" fill="#FECE00"/>
<path d="M331 88.6133V127.919C331 131.103 328.435 133.771 325.049 133.771C321.662 133.771 319.608 131.103 319.608 127.919V126.687C315.196 130.484 310.062 132.742 303.908 132.742C290.154 132.742 279.069 121.656 279.069 108.006C279.069 94.3565 290.154 83.1672 303.908 83.1672C310.067 83.1672 315.196 85.5289 319.608 89.1183V88.6034C319.608 85.4199 321.662 82.7513 325.049 82.7513C328.435 82.7513 331 85.4199 331 88.6034V88.6133ZM316.736 108.011C316.736 100.931 310.884 95.1833 303.908 95.1833C296.932 95.1833 290.976 100.931 290.976 108.011C290.976 115.091 296.828 120.735 303.908 120.735C310.988 120.735 316.736 115.091 316.736 108.011Z" fill="#FECE00"/>
<path d="M61.8667 98.4056L49.2813 62.9416C47.9198 59.1045 42.4935 59.0946 41.1171 62.9317L28.4128 98.4106L24.0213 111.729L16.7482 131.449C16.1194 133.152 14.4955 134.281 12.6835 134.281H4.85591C1.83085 134.281 -0.263427 131.26 0.801039 128.429L35.2303 36.6022C35.8641 34.909 37.483 33.79 39.2852 33.79H51.7271C53.5392 33.79 55.1631 34.9189 55.7919 36.622L89.6716 128.443C90.7163 131.27 88.622 134.276 85.6068 134.276H77.3634C75.5117 134.276 73.863 133.097 73.2639 131.345L66.5553 111.719L61.8667 98.4007V98.4056Z" fill="#FECE00"/>
<path d="M56.4457 103.476C58.4261 103.476 59.9164 105.347 59.3916 107.254C57.733 113.314 52.1879 117.765 45.603 117.765C39.0182 117.765 33.4731 113.309 31.8145 107.254C31.2946 105.347 32.7849 103.476 34.7603 103.476H56.4408H56.4457Z" fill="#FECE00"/>
<path d="M62.3974 41.4022H87.2412C89.6914 41.4022 91.6764 43.3872 91.6764 45.8374C91.6764 48.2875 89.6914 50.2725 87.2412 50.2725H62.3974H29.279H4.4352C1.98496 50.2725 0 48.2875 0 45.8374C0 43.3872 1.98496 41.4022 4.4352 41.4022H29.279L7.76243 28.9806C5.64023 27.7555 4.91386 25.0408 6.13898 22.9187C7.3641 20.7965 10.0788 20.0702 12.201 21.2953L33.7175 33.7203L21.2956 12.2041C20.0705 10.0819 20.7969 7.36731 22.9191 6.14222C25.0413 4.91712 27.756 5.64348 28.9811 7.76564L41.403 29.2785V4.43512C41.403 1.98492 43.3879 0 45.8382 0C48.2884 0 50.2734 1.98492 50.2734 4.43512V29.2785L62.6953 7.76229C63.9204 5.64013 66.6351 4.91377 68.7573 6.13887C70.8795 7.36397 71.6058 10.0786 70.3807 12.2008L57.9588 33.7169L79.4754 21.2953C81.5976 20.0702 84.3123 20.7965 85.5374 22.9187C86.7625 25.0408 86.0361 27.7555 83.9139 28.9806L62.3974 41.4022Z" fill="#FECE00"/>
</svg>
