<svg width="118" height="173" viewBox="0 0 118 173" fill="none" xmlns="http://www.w3.org/2000/svg">
<path d="M79.631 126.661L63.4318 81.0143C61.6793 76.0755 54.6949 76.0628 52.9233 81.0016L36.5712 126.668L30.9187 143.81L21.5573 169.192C20.748 171.384 18.6577 172.837 16.3254 172.837H6.25025C2.35658 172.837 -0.339039 168.95 1.03107 165.305L45.3463 47.112C46.162 44.9325 48.2458 43.4923 50.5655 43.4923H66.5798C68.9122 43.4923 71.0024 44.9453 71.8118 47.1374L115.42 165.324C116.764 168.963 114.069 172.831 110.188 172.831H99.5773C97.1939 172.831 95.0718 171.314 94.3007 169.058L85.6658 143.797L79.631 126.655V126.661Z" fill="#FECE00"/>
<path d="M72.6534 133.188C75.2024 133.188 77.1206 135.596 76.4451 138.05C74.3102 145.85 67.1729 151.579 58.6973 151.579C50.2217 151.579 43.0844 145.844 40.9496 138.05C40.2804 135.596 42.1986 133.188 44.7413 133.188H72.647H72.6534Z" fill="#FECE00"/>
<path d="M80.3139 53.2903H112.291C115.445 53.2903 118 55.8452 118 58.9989C118 62.1527 115.445 64.7075 112.291 64.7075H80.3139H37.6861H5.7087C2.55491 64.7075 0 62.1527 0 58.9989C0 55.8452 2.55491 53.2903 5.7087 53.2903H37.6861L9.99131 37.3019C7.25975 35.7251 6.32481 32.231 7.90171 29.4995C9.4786 26.768 12.9728 25.833 15.7043 27.4099L43.3991 43.4026L27.4104 15.7083C25.8335 12.9768 26.7684 9.48274 29.5 7.90587C32.2316 6.32901 35.7257 7.26392 37.3026 9.99544L53.2913 37.6854V5.7086C53.2913 2.55487 55.8462 0 59 0C62.1538 0 64.7087 2.55487 64.7087 5.7086V37.6854L80.6974 9.99113C82.2743 7.25962 85.7684 6.3247 88.5 7.90156C91.2316 9.47843 92.1665 12.9725 90.5896 15.704L74.6009 43.3983L102.296 27.4099C105.027 25.833 108.521 26.768 110.098 29.4995C111.675 32.231 110.74 35.7251 108.009 37.3019L80.3139 53.2903Z" fill="#FECE00"/>
</svg>
