<svg width="225" height="161" viewBox="0 0 225 161" fill="none" xmlns="http://www.w3.org/2000/svg">
<path d="M39.3597 78.1508L36.0882 81.3124C34.1571 83.1786 33.0826 85.7596 33.119 88.4449L33.9036 146.429C33.9964 153.288 40.9504 157.829 46.9219 154.453C49.0264 153.264 51.1439 151.961 53.0605 150.598C55.327 148.985 56.4646 146.317 56.4364 143.536C56.3349 133.516 56.0796 107.895 55.8882 85.0883C55.8164 76.5247 45.5179 72.1995 39.3597 78.1508Z" fill="#004E64"/>
<path d="M70.4053 78.1508L67.1338 81.3124C65.2027 83.1786 64.1283 85.7596 64.1646 88.4449L64.9492 146.429C65.042 153.288 71.9961 157.829 77.9675 154.453C80.072 153.264 82.1896 151.961 84.1062 150.598C86.3727 148.985 87.5102 146.317 87.482 143.536C87.3805 133.516 87.1252 107.895 86.9339 85.0883C86.862 76.5247 76.5635 72.1995 70.4053 78.1508Z" fill="#004E64"/>
<path d="M161.154 74.1889L157.883 77.3505C155.952 79.2167 154.877 81.7977 154.913 84.4829L155.698 142.467C155.791 149.326 162.745 153.867 168.716 150.491C170.821 149.302 172.938 147.999 174.855 146.636C177.121 145.023 178.259 142.355 178.231 139.574C178.129 129.554 177.874 103.933 177.683 81.1264C177.611 72.5628 167.312 68.2375 161.154 74.1889Z" fill="#004E64"/>
<path d="M188.522 69.632L185.25 72.7936C183.319 74.6598 182.245 77.2408 182.281 79.9261L183.066 137.91C183.159 144.769 190.113 149.31 196.084 145.934C198.189 144.745 200.306 143.442 202.223 142.079C204.489 140.466 205.627 137.799 205.598 135.017C205.497 124.998 205.242 99.3759 205.05 76.5695C204.978 68.0059 194.68 63.6807 188.522 69.632Z" fill="#004E64"/>
<path d="M203.031 39.5078C209.357 39.0027 214.889 43.7861 215.327 50.1416L215.621 54.3145C217.144 75.5277 219.455 101.593 220.711 115.39L220.75 115.97C220.986 121.748 216.86 126.803 211.112 127.62L210.532 127.688C159.51 132.316 79.4101 136.529 40.3162 138.446L26.2771 139.122C20.532 139.393 15.553 135.326 14.5886 129.724L14.5076 129.177L7.44702 71.875C6.67097 65.5749 11.2089 59.8613 17.5212 59.1914L202.729 39.5361L203.031 39.5078Z" fill="#FECE00" stroke="#004E64" stroke-width="3.24522"/>
<path d="M191.725 40.8594C198.092 40.3093 203.68 45.1243 204.094 51.5273L204.373 55.7363C205.818 77.1305 208.009 103.41 209.191 117.224L209.226 117.799C209.432 123.53 205.348 128.54 199.65 129.38L199.075 129.45C151.157 134.058 76.4573 138.251 39.3777 140.189L25.9773 140.877C20.1869 141.168 15.1886 137.051 14.2576 131.403L14.1794 130.852L7.49487 73.1221C6.77181 66.8782 11.2568 61.2347 17.5027 60.5293L191.422 40.8896L191.725 40.8594Z" fill="#FFF2BF" stroke="#004E64" stroke-width="3.24522"/>
<path d="M67.6756 123.479L70.7807 126.102C72.0135 127.162 72.2061 129.053 71.0999 130.339C70.5966 130.978 69.8216 131.338 69.0739 131.394C68.2763 131.454 67.5061 131.211 66.9127 130.654L63.7004 127.939C60.8174 130.261 57.2725 131.782 53.3345 132.078C43.0661 132.852 34.061 125.108 33.2838 114.79C32.5103 104.521 40.2538 95.5163 50.5223 94.7429C60.8406 93.9656 69.8457 101.709 70.6191 111.978C70.9383 116.215 69.8317 120.158 67.6756 123.479ZM52.884 126.097C55.1769 125.924 57.2255 125.168 58.9909 123.982L55.1316 120.664C53.8988 119.604 53.7561 117.709 54.8162 116.477C55.8726 115.194 57.7668 115.051 59.0495 116.108L63.0696 119.564C64.2154 117.473 64.8328 115.02 64.6375 112.428C64.1119 105.45 57.9975 100.145 50.9691 100.675C43.9905 101.2 38.6899 107.364 39.2156 114.343C39.745 121.371 45.9054 126.622 52.884 126.097ZM90.6284 129.47C83.7994 129.984 76.1726 125.896 75.5305 117.373L73.901 95.739C73.7733 94.0442 75.0178 92.597 76.7126 92.4693C78.4074 92.3417 79.9045 93.5824 80.0322 95.2772L81.6617 116.911C82.0071 121.497 86.225 123.585 90.1629 123.289C94.1506 122.988 98.008 120.291 97.6626 115.706L96.033 94.072C95.9054 92.3772 97.1997 90.9262 98.8945 90.7985C100.589 90.6708 102.037 91.9153 102.164 93.6101L103.794 115.244C104.436 123.768 97.5073 128.951 90.6284 129.47ZM128.273 110.643L114.017 111.717L114.76 121.586L129.016 120.512C130.661 120.388 132.108 121.633 132.232 123.278C132.356 124.923 131.108 126.32 129.463 126.444L112.216 127.743C110.571 127.867 109.177 126.669 109.053 125.024L106.65 93.1218C106.527 91.4769 107.721 90.0334 109.366 89.9095L126.613 88.6104C128.258 88.4865 129.705 89.7309 129.829 91.3759C129.953 93.0208 128.709 94.4681 127.064 94.592L112.808 95.6658L113.57 105.785L127.826 104.711C129.471 104.587 130.914 105.782 131.042 107.476C131.166 109.121 129.918 110.519 128.273 110.643ZM151.422 103.585C156.742 104.338 160.841 108.841 160.925 113.948C161.015 119.806 155.987 123.594 151.304 124.649C150.514 124.808 149.67 124.922 148.873 124.982C143.988 125.35 138.999 123.671 135.741 120.357C134.601 119.189 134.611 117.334 135.775 116.143C136.942 115.003 138.798 115.013 139.939 116.181C142.323 118.558 146.366 119.657 150.014 118.831C152.43 118.298 155.009 116.599 154.967 114.046C154.948 111.792 153.045 109.829 150.561 109.465C149.546 109.291 148.396 109.327 147.245 109.364C144.642 109.41 141.74 109.478 138.909 107.836C135.082 105.618 132.946 101.217 133.743 97.1468C134.612 92.72 138.348 89.0799 143.031 88.0254C147.568 87.0319 152.551 87.96 156.297 90.435C157.618 91.3381 158.01 93.2135 157.11 94.5846C156.207 95.9059 154.332 96.2978 152.961 95.3985C150.583 93.7729 147.279 93.1696 144.272 93.8472C141.955 94.3726 139.986 96.1753 139.595 98.3102C139.228 100.092 140.464 101.854 141.931 102.696C143.294 103.496 145.046 103.464 147.098 103.41C148.501 103.404 149.9 103.349 151.422 103.585ZM188.461 84.052C190.106 83.9281 191.553 85.1726 191.677 86.8176C191.805 88.5123 190.56 89.9596 188.915 90.0835L180.341 90.7293L182.508 119.491C182.636 121.186 181.391 122.633 179.746 122.757C178.051 122.885 176.604 121.64 176.476 119.945L174.31 91.1836L165.786 91.8257C164.141 91.9496 162.694 90.7051 162.566 89.0103C162.442 87.3653 163.687 85.9181 165.332 85.7942L188.461 84.052Z" fill="#004E64"/>
<path d="M67.6756 123.479L66.7642 122.887L66.2424 123.69L66.9742 124.309L67.6756 123.479ZM70.7807 126.102L71.4893 125.278L71.482 125.272L70.7807 126.102ZM71.0999 130.339L70.2759 129.63L70.2605 129.648L70.2459 129.667L71.0999 130.339ZM66.9127 130.654L67.6564 129.862L67.6358 129.843L67.6143 129.825L66.9127 130.654ZM63.7004 127.939L64.402 127.109L63.717 126.53L63.0186 127.092L63.7004 127.939ZM58.9909 123.982L59.5968 124.884L60.7815 124.089L59.6995 123.158L58.9909 123.982ZM55.1316 120.664L55.8402 119.84L55.8402 119.84L55.1316 120.664ZM54.8162 116.477L55.6402 117.185L55.6477 117.176L55.6551 117.167L54.8162 116.477ZM59.0495 116.108L59.758 115.284L59.7492 115.276L59.7403 115.269L59.0495 116.108ZM63.0696 119.564L62.3611 120.388L63.3781 121.263L64.0226 120.087L63.0696 119.564ZM67.6756 123.479L66.9742 124.309L70.0794 126.932L70.7807 126.102L71.482 125.272L68.3769 122.648L67.6756 123.479ZM70.7807 126.102L70.0722 126.926C70.8626 127.606 70.98 128.812 70.2759 129.63L71.0999 130.339L71.9238 131.048C73.4322 129.293 73.1645 126.719 71.4892 125.278L70.7807 126.102ZM71.0999 130.339L70.2459 129.667C69.9521 130.04 69.4719 130.274 68.9922 130.31L69.0739 131.394L69.1555 132.478C70.1712 132.401 71.2411 131.917 71.9538 131.011L71.0999 130.339ZM69.0739 131.394L68.9922 130.31C68.4729 130.349 68.0096 130.194 67.6564 129.862L66.9127 130.654L66.1691 131.447C67.0026 132.229 68.0798 132.559 69.1555 132.478L69.0739 131.394ZM66.9127 130.654L67.6143 129.825L64.402 127.109L63.7004 127.939L62.9988 128.769L66.2111 131.484L66.9127 130.654ZM63.7004 127.939L63.0186 127.092C60.2954 129.286 56.9569 130.716 53.2529 130.995L53.3345 132.078L53.4162 133.162C57.588 132.848 61.3395 131.236 64.3821 128.785L63.7004 127.939ZM53.3345 132.078L53.2529 130.995C43.5848 131.723 35.0997 124.43 34.3674 114.708L33.2838 114.79L32.2002 114.871C33.0223 125.786 42.5473 133.981 53.4162 133.162L53.3345 132.078ZM33.2838 114.79L34.3674 114.708C33.639 105.038 40.9339 96.5549 50.6039 95.8265L50.5223 94.7429L50.4407 93.6592C39.5737 94.4778 31.3816 104.005 32.2002 114.871L33.2838 114.79ZM50.5223 94.7429L50.6039 95.8265C60.3257 95.0942 68.8073 102.391 69.5355 112.059L70.6191 111.978L71.7028 111.896C70.8841 101.027 61.3556 92.8371 50.4407 93.6592L50.5223 94.7429ZM70.6191 111.978L69.5355 112.059C69.8361 116.05 68.7958 119.758 66.7642 122.887L67.6756 123.479L68.587 124.07C70.8675 120.558 72.0405 116.379 71.7028 111.896L70.6191 111.978ZM52.884 126.097L52.9656 127.18C55.4536 126.993 57.6816 126.171 59.5968 124.884L58.9909 123.982L58.3851 123.08C56.7693 124.165 54.9003 124.855 52.8024 125.013L52.884 126.097ZM58.9909 123.982L59.6995 123.158L55.8402 119.84L55.1316 120.664L54.4231 121.488L58.2824 124.806L58.9909 123.982ZM55.1316 120.664L55.8402 119.84C55.0624 119.171 54.9714 117.963 55.6402 117.185L54.8162 116.477L53.9923 115.768C52.5409 117.456 52.7352 120.036 54.4231 121.488L55.1316 120.664ZM54.8162 116.477L55.6551 117.167C56.3129 116.369 57.5183 116.254 58.3586 116.946L59.0495 116.108L59.7403 115.269C58.0153 113.848 55.4323 114.019 53.9774 115.786L54.8162 116.477ZM59.0495 116.108L58.341 116.931L62.3611 120.388L63.0696 119.564L63.7781 118.74L59.758 115.284L59.0495 116.108ZM63.0696 119.564L64.0226 120.087C65.2613 117.826 65.9334 115.165 65.7211 112.347L64.6375 112.428L63.5539 112.51C63.7321 114.876 63.1695 117.12 62.1165 119.042L63.0696 119.564ZM64.6375 112.428L65.7211 112.347C65.1506 104.772 58.5171 99.0163 50.8875 99.591L50.9691 100.675L51.0507 101.758C57.4779 101.274 63.0731 106.127 63.5539 112.51L64.6375 112.428ZM50.9691 100.675L50.8875 99.591C43.3104 100.162 37.5612 106.848 38.132 114.425L39.2156 114.343L40.2992 114.261C39.8186 107.881 44.6706 102.239 51.0507 101.758L50.9691 100.675ZM39.2156 114.343L38.132 114.425C38.7066 122.054 45.3913 127.751 52.9656 127.18L52.884 126.097L52.8024 125.013C46.4195 125.494 40.7833 120.689 40.2992 114.261L39.2156 114.343ZM90.6284 129.47L90.5468 128.386C84.1214 128.87 77.1977 125.038 76.6142 117.291L75.5305 117.373L74.4469 117.454C75.1474 126.754 83.4775 131.098 90.7101 130.553L90.6284 129.47ZM75.5305 117.373L76.6142 117.291L74.9846 95.6574L73.901 95.739L72.8174 95.8206L74.4469 117.454L75.5305 117.373ZM73.901 95.739L74.9846 95.6574C74.9021 94.5611 75.6979 93.6355 76.7943 93.553L76.7126 92.4693L76.631 91.3857C74.3377 91.5584 72.6446 93.5274 72.8174 95.8206L73.901 95.739ZM76.7126 92.4693L76.7943 93.553C77.9137 93.4686 78.8677 94.2853 78.9486 95.3588L80.0322 95.2772L81.1158 95.1956C80.9414 92.8795 78.9012 91.2147 76.631 91.3857L76.7126 92.4693ZM80.0322 95.2772L78.9486 95.3588L80.5781 116.992L81.6617 116.911L82.7453 116.829L81.1158 95.1956L80.0322 95.2772ZM81.6617 116.911L80.5781 116.992C80.7777 119.642 82.1141 121.605 83.963 122.835C85.7838 124.047 88.0717 124.536 90.2445 124.372L90.1629 123.289L90.0812 122.205C88.3161 122.338 86.5262 121.931 85.1673 121.026C83.8363 120.14 82.8912 118.765 82.7453 116.829L81.6617 116.911ZM90.1629 123.289L90.2445 124.372C92.4396 124.207 94.6409 123.382 96.2669 121.91C97.9181 120.415 98.9458 118.274 98.7462 115.624L97.6626 115.706L96.5789 115.787C96.7248 117.723 95.9965 119.223 94.8084 120.298C93.5951 121.397 91.8739 122.07 90.0812 122.205L90.1629 123.289ZM97.6626 115.706L98.7462 115.624L97.1167 93.9903L96.033 94.072L94.9494 94.1536L96.5789 115.787L97.6626 115.706ZM96.033 94.072L97.1167 93.9903C97.0358 92.9168 97.8567 91.9664 98.9761 91.8821L98.8945 90.7985L98.8129 89.7149C96.5427 89.8859 94.775 91.8375 94.9494 94.1536L96.033 94.072ZM98.8945 90.7985L98.9761 91.8821C100.072 91.7996 100.998 92.5954 101.081 93.6918L102.164 93.6101L103.248 93.5285C103.075 91.2352 101.106 89.5421 98.8129 89.7149L98.8945 90.7985ZM102.164 93.6101L101.081 93.6918L102.71 115.325L103.794 115.244L104.877 115.162L103.248 93.5285L102.164 93.6101ZM103.794 115.244L102.71 115.325C103.294 123.071 97.0247 127.898 90.5468 128.386L90.6284 129.47L90.7101 130.553C97.99 130.005 105.578 124.464 104.877 115.162L103.794 115.244ZM114.017 111.717L113.935 110.633L112.851 110.715L112.933 111.798L114.017 111.717ZM114.76 121.586L113.676 121.668L113.758 122.751L114.842 122.67L114.76 121.586ZM112.808 95.6658L112.726 94.5822L111.642 94.6638L111.724 95.7475L112.808 95.6658ZM113.57 105.785L112.486 105.866L112.568 106.95L113.651 106.868L113.57 105.785ZM128.273 110.643L128.191 109.559L113.935 110.633L114.017 111.717L114.098 112.8L128.354 111.726L128.273 110.643ZM114.017 111.717L112.933 111.798L113.676 121.668L114.76 121.586L115.844 121.505L115.1 111.635L114.017 111.717ZM114.76 121.586L114.842 122.67L129.098 121.596L129.016 120.512L128.935 119.429L114.678 120.503L114.76 121.586ZM129.016 120.512L129.098 121.596C130.144 121.517 131.07 122.313 131.149 123.36L132.232 123.278L133.316 123.196C133.147 120.953 131.178 119.26 128.935 119.429L129.016 120.512ZM132.232 123.278L131.149 123.36C131.226 124.382 130.452 125.28 129.381 125.361L129.463 126.444L129.545 127.528C131.764 127.361 133.487 125.463 133.316 123.196L132.232 123.278ZM129.463 126.444L129.381 125.361L112.134 126.66L112.216 127.743L112.298 128.827L129.545 127.528L129.463 126.444ZM112.216 127.743L112.134 126.66C111.088 126.738 110.216 125.989 110.137 124.942L109.053 125.024L107.97 125.105C108.139 127.349 110.054 128.996 112.298 128.827L112.216 127.743ZM109.053 125.024L110.137 124.942L107.734 93.0402L106.65 93.1218L105.567 93.2034L107.97 125.105L109.053 125.024ZM106.65 93.1218L107.734 93.0402C107.653 91.9698 108.425 91.0702 109.448 90.9931L109.366 89.9095L109.285 88.8258C107.017 88.9966 105.4 90.9839 105.567 93.2034L106.65 93.1218ZM109.366 89.9095L109.448 90.9931L126.695 89.694L126.613 88.6104L126.532 87.5267L109.285 88.8258L109.366 89.9095ZM126.613 88.6104L126.695 89.694C127.741 89.6152 128.667 90.411 128.746 91.4575L129.829 91.3759L130.913 91.2943C130.744 89.0509 128.775 87.3578 126.532 87.5267L126.613 88.6104ZM129.829 91.3759L128.746 91.4575C128.824 92.504 128.029 93.4295 126.982 93.5084L127.064 94.592L127.145 95.6756C129.389 95.5066 131.082 93.5377 130.913 91.2943L129.829 91.3759ZM127.064 94.592L126.982 93.5084L112.726 94.5822L112.808 95.6658L112.889 96.7495L127.145 95.6756L127.064 94.592ZM112.808 95.6658L111.724 95.7475L112.486 105.866L113.57 105.785L114.653 105.703L113.891 95.5842L112.808 95.6658ZM113.57 105.785L113.651 106.868L127.908 105.795L127.826 104.711L127.744 103.627L113.488 104.701L113.57 105.785ZM127.826 104.711L127.908 105.795C128.966 105.715 129.877 106.474 129.958 107.558L131.042 107.476L132.126 107.395C131.952 105.09 129.976 103.459 127.744 103.627L127.826 104.711ZM131.042 107.476L129.958 107.558C130.035 108.581 129.261 109.478 128.191 109.559L128.273 110.643L128.354 111.726C130.574 111.559 132.296 109.662 132.126 107.395L131.042 107.476ZM151.422 103.585L151.255 104.659L151.263 104.66L151.27 104.661L151.422 103.585ZM160.925 113.948L162.012 113.931L162.012 113.93L160.925 113.948ZM151.304 124.649L151.52 125.714L151.531 125.711L151.543 125.709L151.304 124.649ZM135.741 120.357L134.964 121.116L134.966 121.119L135.741 120.357ZM135.775 116.143L135.015 115.366L135.007 115.375L134.998 115.384L135.775 116.143ZM139.939 116.181L139.161 116.94L139.166 116.945L139.171 116.95L139.939 116.181ZM150.014 118.831L149.78 117.769L149.774 117.771L150.014 118.831ZM154.967 114.046L153.88 114.055L153.881 114.064L154.967 114.046ZM150.561 109.465L150.378 110.536L150.391 110.538L150.404 110.54L150.561 109.465ZM147.245 109.364L147.264 110.451L147.272 110.45L147.28 110.45L147.245 109.364ZM138.909 107.836L139.454 106.896L139.454 106.896L138.909 107.836ZM133.743 97.1468L132.676 96.9374L132.676 96.9382L133.743 97.1468ZM143.031 88.0254L142.799 86.9638L142.793 86.9652L143.031 88.0254ZM156.297 90.435L156.91 89.5378L156.903 89.533L156.896 89.5284L156.297 90.435ZM157.11 94.5846L158.008 95.1978L158.013 95.1893L158.019 95.1806L157.11 94.5846ZM152.961 95.3985L152.348 96.2956L152.356 96.3015L152.365 96.3071L152.961 95.3985ZM144.272 93.8472L144.033 92.7871L144.031 92.7875L144.272 93.8472ZM139.595 98.3102L140.659 98.5294L140.662 98.5176L140.664 98.5057L139.595 98.3102ZM141.931 102.696L142.48 101.759L142.472 101.754L141.931 102.696ZM147.098 103.41L147.093 102.323L147.081 102.323L147.069 102.323L147.098 103.41ZM151.422 103.585L151.27 104.661C156.094 105.343 159.764 109.427 159.839 113.966L160.925 113.948L162.012 113.93C161.918 108.256 157.39 103.332 151.574 102.509L151.422 103.585ZM160.925 113.948L159.839 113.965C159.918 119.096 155.489 122.592 151.065 123.588L151.304 124.649L151.543 125.709C156.485 124.596 162.113 120.517 162.012 113.931L160.925 113.948ZM151.304 124.649L151.089 123.583C150.345 123.734 149.546 123.842 148.791 123.899L148.873 124.982L148.955 126.066C149.795 126.002 150.683 125.883 151.52 125.714L151.304 124.649ZM148.873 124.982L148.791 123.899C144.185 124.245 139.523 122.653 136.516 119.595L135.741 120.357L134.966 121.119C138.475 124.688 143.791 126.455 148.955 126.066L148.873 124.982ZM135.741 120.357L136.519 119.597C135.801 118.863 135.791 117.682 136.552 116.903L135.775 116.143L134.998 115.384C133.432 116.986 133.401 119.516 134.964 121.116L135.741 120.357ZM135.775 116.143L136.534 116.921C137.278 116.194 138.445 116.207 139.161 116.94L139.939 116.181L140.716 115.421C139.151 113.819 136.607 113.811 135.015 115.366L135.775 116.143ZM139.939 116.181L139.171 116.95C141.844 119.614 146.278 120.791 150.254 119.89L150.014 118.831L149.774 117.771C146.455 118.522 142.803 117.501 140.706 115.411L139.939 116.181ZM150.014 118.831L150.248 119.892C151.596 119.594 153.018 118.969 154.121 118.02C155.233 117.062 156.081 115.714 156.054 114.028L154.967 114.046L153.881 114.064C153.895 114.932 153.474 115.709 152.703 116.372C151.923 117.044 150.847 117.534 149.78 117.769L150.014 118.831ZM154.967 114.046L156.054 114.037C156.029 111.154 153.636 108.818 150.719 108.39L150.561 109.465L150.404 110.54C152.455 110.841 153.866 112.43 153.88 114.055L154.967 114.046ZM150.561 109.465L150.745 108.394C149.6 108.198 148.333 108.242 147.211 108.278L147.245 109.364L147.28 110.45C148.458 110.413 149.491 110.384 150.378 110.536L150.561 109.465ZM147.245 109.364L147.226 108.277C144.592 108.324 141.988 108.366 139.454 106.896L138.909 107.836L138.364 108.776C141.491 110.59 144.692 110.496 147.264 110.451L147.245 109.364ZM138.909 107.836L139.454 106.896C135.99 104.888 134.11 100.929 134.809 97.3555L133.743 97.1468L132.676 96.9382C131.783 101.506 134.175 106.348 138.364 108.777L138.909 107.836ZM133.743 97.1468L134.809 97.3563C135.588 93.3919 138.966 90.0548 143.27 89.0855L143.031 88.0254L142.793 86.9652C137.731 88.1051 133.637 92.0482 132.676 96.9374L133.743 97.1468ZM143.031 88.0254L143.264 89.0869C147.519 88.1552 152.201 89.0313 155.698 91.3416L156.297 90.435L156.896 89.5284C152.901 86.8887 147.618 85.9087 142.799 86.9638L143.031 88.0254ZM156.297 90.435L155.683 91.3322C156.519 91.9036 156.774 93.1162 156.202 93.9886L157.11 94.5846L158.019 95.1806C159.246 93.3107 158.716 90.7725 156.91 89.5378L156.297 90.435ZM157.11 94.5846L156.213 93.9714C155.642 94.8075 154.429 95.062 153.557 94.4898L152.961 95.3985L152.365 96.3071C154.235 97.5336 156.773 97.0043 158.008 95.1978L157.11 94.5846ZM152.961 95.3985L153.574 94.5013C150.932 92.6957 147.317 92.0471 144.033 92.7871L144.272 93.8472L144.511 94.9073C147.241 94.2921 150.233 94.8502 152.348 96.2956L152.961 95.3985ZM144.272 93.8472L144.031 92.7875C141.379 93.3889 139.01 95.4688 138.526 98.1146L139.595 98.3102L140.664 98.5057C140.961 96.8818 142.531 95.3563 144.512 94.907L144.272 93.8472ZM139.595 98.3102L138.531 98.0909C138.035 100.5 139.686 102.661 141.39 103.639L141.931 102.696L142.472 101.754C141.241 101.047 140.421 99.6847 140.659 98.5294L139.595 98.3102ZM141.931 102.696L141.381 103.633C143.065 104.621 145.165 104.548 147.126 104.496L147.098 103.41L147.069 102.323C144.928 102.38 143.523 102.37 142.48 101.759L141.931 102.696ZM147.098 103.41L147.102 104.496C148.553 104.491 149.841 104.44 151.255 104.659L151.422 103.585L151.589 102.511C149.959 102.258 148.448 102.318 147.093 102.323L147.098 103.41ZM180.341 90.7293L180.26 89.6457L179.176 89.7273L179.258 90.8109L180.341 90.7293ZM174.31 91.1836L175.394 91.102L175.312 90.0184L174.228 90.1L174.31 91.1836ZM188.461 84.052L188.542 85.1356C189.589 85.0568 190.514 85.8527 190.593 86.8992L191.677 86.8176L192.761 86.7359C192.592 84.4925 190.623 82.7994 188.379 82.9684L188.461 84.052ZM191.677 86.8176L190.593 86.8992C190.677 88.0072 189.868 88.9219 188.834 88.9999L188.915 90.0835L188.997 91.1671C191.252 90.9973 192.932 89.0175 192.761 86.7359L191.677 86.8176ZM188.915 90.0835L188.834 88.9999L180.26 89.6457L180.341 90.7293L180.423 91.8129L188.997 91.1671L188.915 90.0835ZM180.341 90.7293L179.258 90.8109L181.424 119.573L182.508 119.491L183.592 119.409L181.425 90.6477L180.341 90.7293ZM182.508 119.491L181.424 119.573C181.508 120.681 180.699 121.595 179.665 121.673L179.746 122.757L179.828 123.841C182.083 123.671 183.763 121.691 183.592 119.409L182.508 119.491ZM179.746 122.757L179.665 121.673C178.568 121.756 177.643 120.96 177.56 119.864L176.476 119.945L175.393 120.027C175.566 122.32 177.535 124.013 179.828 123.841L179.746 122.757ZM176.476 119.945L177.56 119.864L175.394 91.102L174.31 91.1836L173.226 91.2652L175.393 120.027L176.476 119.945ZM174.31 91.1836L174.228 90.1L165.705 90.742L165.786 91.8257L165.868 92.9093L174.392 92.2672L174.31 91.1836ZM165.786 91.8257L165.705 90.742C164.67 90.82 163.733 90.0367 163.65 88.9287L162.566 89.0103L161.483 89.0919C161.655 91.3735 163.613 93.0791 165.868 92.9093L165.786 91.8257ZM162.566 89.0103L163.65 88.9287C163.571 87.8822 164.367 86.9566 165.414 86.8778L165.332 85.7942L165.25 84.7106C163.007 84.8795 161.314 86.8485 161.483 89.0919L162.566 89.0103ZM165.332 85.7942L165.414 86.8778L188.542 85.1356L188.461 84.052L188.379 82.9684L165.25 84.7106L165.332 85.7942Z" fill="white"/>
<path d="M67.6756 123.479L66.7642 122.887L66.2424 123.69L66.9742 124.309L67.6756 123.479ZM70.7807 126.102L71.4893 125.278L71.482 125.272L70.7807 126.102ZM71.0999 130.339L70.2759 129.63L70.2605 129.648L70.2459 129.667L71.0999 130.339ZM66.9127 130.654L67.6564 129.862L67.6358 129.843L67.6143 129.825L66.9127 130.654ZM63.7004 127.939L64.402 127.109L63.717 126.53L63.0186 127.092L63.7004 127.939ZM58.9909 123.982L59.5968 124.884L60.7815 124.089L59.6995 123.158L58.9909 123.982ZM55.1316 120.664L55.8402 119.84L55.8402 119.84L55.1316 120.664ZM54.8162 116.477L55.6402 117.185L55.6477 117.176L55.6551 117.167L54.8162 116.477ZM59.0495 116.108L59.758 115.284L59.7492 115.276L59.7403 115.269L59.0495 116.108ZM63.0696 119.564L62.3611 120.388L63.3781 121.263L64.0226 120.087L63.0696 119.564ZM67.6756 123.479L66.9742 124.309L70.0794 126.932L70.7807 126.102L71.482 125.272L68.3769 122.648L67.6756 123.479ZM70.7807 126.102L70.0722 126.926C70.8626 127.606 70.98 128.812 70.2759 129.63L71.0999 130.339L71.9238 131.048C73.4322 129.293 73.1645 126.719 71.4892 125.278L70.7807 126.102ZM71.0999 130.339L70.2459 129.667C69.9521 130.04 69.4719 130.274 68.9922 130.31L69.0739 131.394L69.1555 132.478C70.1712 132.401 71.2411 131.917 71.9538 131.011L71.0999 130.339ZM69.0739 131.394L68.9922 130.31C68.4729 130.349 68.0096 130.194 67.6564 129.862L66.9127 130.654L66.1691 131.447C67.0026 132.229 68.0798 132.559 69.1555 132.478L69.0739 131.394ZM66.9127 130.654L67.6143 129.825L64.402 127.109L63.7004 127.939L62.9988 128.769L66.2111 131.484L66.9127 130.654ZM63.7004 127.939L63.0186 127.092C60.2954 129.286 56.9569 130.716 53.2529 130.995L53.3345 132.078L53.4162 133.162C57.588 132.848 61.3395 131.236 64.3821 128.785L63.7004 127.939ZM53.3345 132.078L53.2529 130.995C43.5848 131.723 35.0997 124.43 34.3674 114.708L33.2838 114.79L32.2002 114.871C33.0223 125.786 42.5473 133.981 53.4162 133.162L53.3345 132.078ZM33.2838 114.79L34.3674 114.708C33.639 105.038 40.9339 96.5549 50.6039 95.8265L50.5223 94.7429L50.4407 93.6592C39.5737 94.4778 31.3816 104.005 32.2002 114.871L33.2838 114.79ZM50.5223 94.7429L50.6039 95.8265C60.3257 95.0942 68.8073 102.391 69.5355 112.059L70.6191 111.978L71.7028 111.896C70.8841 101.027 61.3556 92.8371 50.4407 93.6592L50.5223 94.7429ZM70.6191 111.978L69.5355 112.059C69.8361 116.05 68.7958 119.758 66.7642 122.887L67.6756 123.479L68.587 124.07C70.8675 120.558 72.0405 116.379 71.7028 111.896L70.6191 111.978ZM52.884 126.097L52.9656 127.18C55.4536 126.993 57.6816 126.171 59.5968 124.884L58.9909 123.982L58.3851 123.08C56.7693 124.165 54.9003 124.855 52.8024 125.013L52.884 126.097ZM58.9909 123.982L59.6995 123.158L55.8402 119.84L55.1316 120.664L54.4231 121.488L58.2824 124.806L58.9909 123.982ZM55.1316 120.664L55.8402 119.84C55.0624 119.171 54.9714 117.963 55.6402 117.185L54.8162 116.477L53.9923 115.768C52.5409 117.456 52.7352 120.036 54.4231 121.488L55.1316 120.664ZM54.8162 116.477L55.6551 117.167C56.3129 116.369 57.5183 116.254 58.3586 116.946L59.0495 116.108L59.7403 115.269C58.0153 113.848 55.4323 114.019 53.9774 115.786L54.8162 116.477ZM59.0495 116.108L58.341 116.931L62.3611 120.388L63.0696 119.564L63.7781 118.74L59.758 115.284L59.0495 116.108ZM63.0696 119.564L64.0226 120.087C65.2613 117.826 65.9334 115.165 65.7211 112.347L64.6375 112.428L63.5539 112.51C63.7321 114.876 63.1695 117.12 62.1165 119.042L63.0696 119.564ZM64.6375 112.428L65.7211 112.347C65.1506 104.772 58.5171 99.0163 50.8875 99.591L50.9691 100.675L51.0507 101.758C57.4779 101.274 63.0731 106.127 63.5539 112.51L64.6375 112.428ZM50.9691 100.675L50.8875 99.591C43.3104 100.162 37.5612 106.848 38.132 114.425L39.2156 114.343L40.2992 114.261C39.8186 107.881 44.6706 102.239 51.0507 101.758L50.9691 100.675ZM39.2156 114.343L38.132 114.425C38.7066 122.054 45.3913 127.751 52.9656 127.18L52.884 126.097L52.8024 125.013C46.4195 125.494 40.7833 120.689 40.2992 114.261L39.2156 114.343ZM90.6284 129.47L90.5468 128.386C84.1214 128.87 77.1977 125.038 76.6142 117.291L75.5305 117.373L74.4469 117.454C75.1474 126.754 83.4775 131.098 90.7101 130.553L90.6284 129.47ZM75.5305 117.373L76.6142 117.291L74.9846 95.6574L73.901 95.739L72.8174 95.8206L74.4469 117.454L75.5305 117.373ZM73.901 95.739L74.9846 95.6574C74.9021 94.5611 75.6979 93.6355 76.7943 93.553L76.7126 92.4693L76.631 91.3857C74.3377 91.5584 72.6446 93.5274 72.8174 95.8206L73.901 95.739ZM76.7126 92.4693L76.7943 93.553C77.9137 93.4686 78.8677 94.2853 78.9486 95.3588L80.0322 95.2772L81.1158 95.1956C80.9414 92.8795 78.9012 91.2147 76.631 91.3857L76.7126 92.4693ZM80.0322 95.2772L78.9486 95.3588L80.5781 116.992L81.6617 116.911L82.7453 116.829L81.1158 95.1956L80.0322 95.2772ZM81.6617 116.911L80.5781 116.992C80.7777 119.642 82.1141 121.605 83.963 122.835C85.7838 124.047 88.0717 124.536 90.2445 124.372L90.1629 123.289L90.0812 122.205C88.3161 122.338 86.5262 121.931 85.1673 121.026C83.8363 120.14 82.8912 118.765 82.7453 116.829L81.6617 116.911ZM90.1629 123.289L90.2445 124.372C92.4396 124.207 94.6409 123.382 96.2669 121.91C97.9181 120.415 98.9458 118.274 98.7462 115.624L97.6626 115.706L96.5789 115.787C96.7248 117.723 95.9965 119.223 94.8084 120.298C93.5951 121.397 91.8739 122.07 90.0812 122.205L90.1629 123.289ZM97.6626 115.706L98.7462 115.624L97.1167 93.9903L96.033 94.072L94.9494 94.1536L96.5789 115.787L97.6626 115.706ZM96.033 94.072L97.1167 93.9903C97.0358 92.9168 97.8567 91.9664 98.9761 91.8821L98.8945 90.7985L98.8129 89.7149C96.5427 89.8859 94.775 91.8375 94.9494 94.1536L96.033 94.072ZM98.8945 90.7985L98.9761 91.8821C100.072 91.7996 100.998 92.5954 101.081 93.6918L102.164 93.6101L103.248 93.5285C103.075 91.2352 101.106 89.5421 98.8129 89.7149L98.8945 90.7985ZM102.164 93.6101L101.081 93.6918L102.71 115.325L103.794 115.244L104.877 115.162L103.248 93.5285L102.164 93.6101ZM103.794 115.244L102.71 115.325C103.294 123.071 97.0247 127.898 90.5468 128.386L90.6284 129.47L90.7101 130.553C97.99 130.005 105.578 124.464 104.877 115.162L103.794 115.244ZM114.017 111.717L113.935 110.633L112.851 110.715L112.933 111.798L114.017 111.717ZM114.76 121.586L113.676 121.668L113.758 122.751L114.842 122.67L114.76 121.586ZM112.808 95.6658L112.726 94.5822L111.642 94.6638L111.724 95.7475L112.808 95.6658ZM113.57 105.785L112.486 105.866L112.568 106.95L113.651 106.868L113.57 105.785ZM128.273 110.643L128.191 109.559L113.935 110.633L114.017 111.717L114.098 112.8L128.354 111.726L128.273 110.643ZM114.017 111.717L112.933 111.798L113.676 121.668L114.76 121.586L115.844 121.505L115.1 111.635L114.017 111.717ZM114.76 121.586L114.842 122.67L129.098 121.596L129.016 120.512L128.935 119.429L114.678 120.503L114.76 121.586ZM129.016 120.512L129.098 121.596C130.144 121.517 131.07 122.313 131.149 123.36L132.232 123.278L133.316 123.196C133.147 120.953 131.178 119.26 128.935 119.429L129.016 120.512ZM132.232 123.278L131.149 123.36C131.226 124.382 130.452 125.28 129.381 125.361L129.463 126.444L129.545 127.528C131.764 127.361 133.487 125.463 133.316 123.196L132.232 123.278ZM129.463 126.444L129.381 125.361L112.134 126.66L112.216 127.743L112.298 128.827L129.545 127.528L129.463 126.444ZM112.216 127.743L112.134 126.66C111.088 126.738 110.216 125.989 110.137 124.942L109.053 125.024L107.97 125.105C108.139 127.349 110.054 128.996 112.298 128.827L112.216 127.743ZM109.053 125.024L110.137 124.942L107.734 93.0402L106.65 93.1218L105.567 93.2034L107.97 125.105L109.053 125.024ZM106.65 93.1218L107.734 93.0402C107.653 91.9698 108.425 91.0702 109.448 90.9931L109.366 89.9095L109.285 88.8258C107.017 88.9966 105.4 90.9839 105.567 93.2034L106.65 93.1218ZM109.366 89.9095L109.448 90.9931L126.695 89.694L126.613 88.6104L126.532 87.5267L109.285 88.8258L109.366 89.9095ZM126.613 88.6104L126.695 89.694C127.741 89.6152 128.667 90.411 128.746 91.4575L129.829 91.3759L130.913 91.2943C130.744 89.0509 128.775 87.3578 126.532 87.5267L126.613 88.6104ZM129.829 91.3759L128.746 91.4575C128.824 92.504 128.029 93.4295 126.982 93.5084L127.064 94.592L127.145 95.6756C129.389 95.5066 131.082 93.5377 130.913 91.2943L129.829 91.3759ZM127.064 94.592L126.982 93.5084L112.726 94.5822L112.808 95.6658L112.889 96.7495L127.145 95.6756L127.064 94.592ZM112.808 95.6658L111.724 95.7475L112.486 105.866L113.57 105.785L114.653 105.703L113.891 95.5842L112.808 95.6658ZM113.57 105.785L113.651 106.868L127.908 105.795L127.826 104.711L127.744 103.627L113.488 104.701L113.57 105.785ZM127.826 104.711L127.908 105.795C128.966 105.715 129.877 106.474 129.958 107.558L131.042 107.476L132.126 107.395C131.952 105.09 129.976 103.459 127.744 103.627L127.826 104.711ZM131.042 107.476L129.958 107.558C130.035 108.581 129.261 109.478 128.191 109.559L128.273 110.643L128.354 111.726C130.574 111.559 132.296 109.662 132.126 107.395L131.042 107.476ZM151.422 103.585L151.255 104.659L151.263 104.66L151.27 104.661L151.422 103.585ZM160.925 113.948L162.012 113.931L162.012 113.93L160.925 113.948ZM151.304 124.649L151.52 125.714L151.531 125.711L151.543 125.709L151.304 124.649ZM135.741 120.357L134.964 121.116L134.966 121.119L135.741 120.357ZM135.775 116.143L135.015 115.366L135.007 115.375L134.998 115.384L135.775 116.143ZM139.939 116.181L139.161 116.94L139.166 116.945L139.171 116.95L139.939 116.181ZM150.014 118.831L149.78 117.769L149.774 117.771L150.014 118.831ZM154.967 114.046L153.88 114.055L153.881 114.064L154.967 114.046ZM150.561 109.465L150.378 110.536L150.391 110.538L150.404 110.54L150.561 109.465ZM147.245 109.364L147.264 110.451L147.272 110.45L147.28 110.45L147.245 109.364ZM138.909 107.836L139.454 106.896L139.454 106.896L138.909 107.836ZM133.743 97.1468L132.676 96.9374L132.676 96.9382L133.743 97.1468ZM143.031 88.0254L142.799 86.9638L142.793 86.9652L143.031 88.0254ZM156.297 90.435L156.91 89.5378L156.903 89.533L156.896 89.5284L156.297 90.435ZM157.11 94.5846L158.008 95.1978L158.013 95.1893L158.019 95.1806L157.11 94.5846ZM152.961 95.3985L152.348 96.2956L152.356 96.3015L152.365 96.3071L152.961 95.3985ZM144.272 93.8472L144.033 92.7871L144.031 92.7875L144.272 93.8472ZM139.595 98.3102L140.659 98.5294L140.662 98.5176L140.664 98.5057L139.595 98.3102ZM141.931 102.696L142.48 101.759L142.472 101.754L141.931 102.696ZM147.098 103.41L147.093 102.323L147.081 102.323L147.069 102.323L147.098 103.41ZM151.422 103.585L151.27 104.661C156.094 105.343 159.764 109.427 159.839 113.966L160.925 113.948L162.012 113.93C161.918 108.256 157.39 103.332 151.574 102.509L151.422 103.585ZM160.925 113.948L159.839 113.965C159.918 119.096 155.489 122.592 151.065 123.588L151.304 124.649L151.543 125.709C156.485 124.596 162.113 120.517 162.012 113.931L160.925 113.948ZM151.304 124.649L151.089 123.583C150.345 123.734 149.546 123.842 148.791 123.899L148.873 124.982L148.955 126.066C149.795 126.002 150.683 125.883 151.52 125.714L151.304 124.649ZM148.873 124.982L148.791 123.899C144.185 124.245 139.523 122.653 136.516 119.595L135.741 120.357L134.966 121.119C138.475 124.688 143.791 126.455 148.955 126.066L148.873 124.982ZM135.741 120.357L136.519 119.597C135.801 118.863 135.791 117.682 136.552 116.903L135.775 116.143L134.998 115.384C133.432 116.986 133.401 119.516 134.964 121.116L135.741 120.357ZM135.775 116.143L136.534 116.921C137.278 116.194 138.445 116.207 139.161 116.94L139.939 116.181L140.716 115.421C139.151 113.819 136.607 113.811 135.015 115.366L135.775 116.143ZM139.939 116.181L139.171 116.95C141.844 119.614 146.278 120.791 150.254 119.89L150.014 118.831L149.774 117.771C146.455 118.522 142.803 117.501 140.706 115.411L139.939 116.181ZM150.014 118.831L150.248 119.892C151.596 119.594 153.018 118.969 154.121 118.02C155.233 117.062 156.081 115.714 156.054 114.028L154.967 114.046L153.881 114.064C153.895 114.932 153.474 115.709 152.703 116.372C151.923 117.044 150.847 117.534 149.78 117.769L150.014 118.831ZM154.967 114.046L156.054 114.037C156.029 111.154 153.636 108.818 150.719 108.39L150.561 109.465L150.404 110.54C152.455 110.841 153.866 112.43 153.88 114.055L154.967 114.046ZM150.561 109.465L150.745 108.394C149.6 108.198 148.333 108.242 147.211 108.278L147.245 109.364L147.28 110.45C148.458 110.413 149.491 110.384 150.378 110.536L150.561 109.465ZM147.245 109.364L147.226 108.277C144.592 108.324 141.988 108.366 139.454 106.896L138.909 107.836L138.364 108.776C141.491 110.59 144.692 110.496 147.264 110.451L147.245 109.364ZM138.909 107.836L139.454 106.896C135.99 104.888 134.11 100.929 134.809 97.3555L133.743 97.1468L132.676 96.9382C131.783 101.506 134.175 106.348 138.364 108.777L138.909 107.836ZM133.743 97.1468L134.809 97.3563C135.588 93.3919 138.966 90.0548 143.27 89.0855L143.031 88.0254L142.793 86.9652C137.731 88.1051 133.637 92.0482 132.676 96.9374L133.743 97.1468ZM143.031 88.0254L143.264 89.0869C147.519 88.1552 152.201 89.0313 155.698 91.3416L156.297 90.435L156.896 89.5284C152.901 86.8887 147.618 85.9087 142.799 86.9638L143.031 88.0254ZM156.297 90.435L155.683 91.3322C156.519 91.9036 156.774 93.1162 156.202 93.9886L157.11 94.5846L158.019 95.1806C159.246 93.3107 158.716 90.7725 156.91 89.5378L156.297 90.435ZM157.11 94.5846L156.213 93.9714C155.642 94.8075 154.429 95.062 153.557 94.4898L152.961 95.3985L152.365 96.3071C154.235 97.5336 156.773 97.0043 158.008 95.1978L157.11 94.5846ZM152.961 95.3985L153.574 94.5013C150.932 92.6957 147.317 92.0471 144.033 92.7871L144.272 93.8472L144.511 94.9073C147.241 94.2921 150.233 94.8502 152.348 96.2956L152.961 95.3985ZM144.272 93.8472L144.031 92.7875C141.379 93.3889 139.01 95.4688 138.526 98.1146L139.595 98.3102L140.664 98.5057C140.961 96.8818 142.531 95.3563 144.512 94.907L144.272 93.8472ZM139.595 98.3102L138.531 98.0909C138.035 100.5 139.686 102.661 141.39 103.639L141.931 102.696L142.472 101.754C141.241 101.047 140.421 99.6847 140.659 98.5294L139.595 98.3102ZM141.931 102.696L141.381 103.633C143.065 104.621 145.165 104.548 147.126 104.496L147.098 103.41L147.069 102.323C144.928 102.38 143.523 102.37 142.48 101.759L141.931 102.696ZM147.098 103.41L147.102 104.496C148.553 104.491 149.841 104.44 151.255 104.659L151.422 103.585L151.589 102.511C149.959 102.258 148.448 102.318 147.093 102.323L147.098 103.41ZM180.341 90.7293L180.26 89.6457L179.176 89.7273L179.258 90.8109L180.341 90.7293ZM174.31 91.1836L175.394 91.102L175.312 90.0184L174.228 90.1L174.31 91.1836ZM188.461 84.052L188.542 85.1356C189.589 85.0568 190.514 85.8527 190.593 86.8992L191.677 86.8176L192.761 86.7359C192.592 84.4925 190.623 82.7994 188.379 82.9684L188.461 84.052ZM191.677 86.8176L190.593 86.8992C190.677 88.0072 189.868 88.9219 188.834 88.9999L188.915 90.0835L188.997 91.1671C191.252 90.9973 192.932 89.0175 192.761 86.7359L191.677 86.8176ZM188.915 90.0835L188.834 88.9999L180.26 89.6457L180.341 90.7293L180.423 91.8129L188.997 91.1671L188.915 90.0835ZM180.341 90.7293L179.258 90.8109L181.424 119.573L182.508 119.491L183.592 119.409L181.425 90.6477L180.341 90.7293ZM182.508 119.491L181.424 119.573C181.508 120.681 180.699 121.595 179.665 121.673L179.746 122.757L179.828 123.841C182.083 123.671 183.763 121.691 183.592 119.409L182.508 119.491ZM179.746 122.757L179.665 121.673C178.568 121.756 177.643 120.96 177.56 119.864L176.476 119.945L175.393 120.027C175.566 122.32 177.535 124.013 179.828 123.841L179.746 122.757ZM176.476 119.945L177.56 119.864L175.394 91.102L174.31 91.1836L173.226 91.2652L175.393 120.027L176.476 119.945ZM174.31 91.1836L174.228 90.1L165.705 90.742L165.786 91.8257L165.868 92.9093L174.392 92.2672L174.31 91.1836ZM165.786 91.8257L165.705 90.742C164.67 90.82 163.733 90.0367 163.65 88.9287L162.566 89.0103L161.483 89.0919C161.655 91.3735 163.613 93.0791 165.868 92.9093L165.786 91.8257ZM162.566 89.0103L163.65 88.9287C163.571 87.8822 164.367 86.9566 165.414 86.8778L165.332 85.7942L165.25 84.7106C163.007 84.8795 161.314 86.8485 161.483 89.0919L162.566 89.0103ZM165.332 85.7942L165.414 86.8778L188.542 85.1356L188.461 84.052L188.379 82.9684L165.25 84.7106L165.332 85.7942Z" fill="#004E64"/>
<path d="M57.6665 65.0338C58.6452 64.9425 59.5502 65.6657 59.6443 66.674L61.4067 85.5647C61.5007 86.573 60.7451 87.4512 59.7664 87.5425C58.7581 87.6366 57.8827 86.9106 57.7887 85.9023L57.0887 78.3993L46.1457 79.4202L46.8457 86.9232C46.9397 87.9315 46.1841 88.8096 45.2054 88.9009C44.1971 88.995 43.3217 88.269 43.2277 87.2607L41.4653 68.37C41.3712 67.3617 42.0972 66.4863 43.1055 66.3922C44.0842 66.3009 44.9892 67.0241 45.0833 68.0324L45.8109 75.8319L56.7539 74.811L56.0263 67.0115C55.9322 66.0032 56.6582 65.1278 57.6665 65.0338ZM75.581 86.7551C69.3533 87.3361 63.8415 82.765 63.2605 76.5373C62.6822 70.3392 67.2534 64.8274 73.4811 64.2464C79.6791 63.6682 85.1909 68.2393 85.7719 74.467C86.3502 80.6651 81.779 86.1769 75.581 86.7551ZM73.8158 67.8347C69.5751 68.2304 66.4559 71.9914 66.8488 76.2025C67.2444 80.4433 71.0054 83.5624 75.2462 83.1668C79.4573 82.7739 82.5765 79.0129 82.1808 74.7721C81.788 70.561 78.027 67.4419 73.8158 67.8347ZM91.2394 85.414C90.7946 85.4555 90.3331 85.319 89.9765 85.0232C89.6198 84.7275 89.3707 84.302 89.3265 83.8275L87.553 64.8182C87.4617 63.8395 88.1905 62.9938 89.1395 62.9052C90.1181 62.8139 90.9611 63.513 91.0524 64.4917L92.6599 81.7217L101.37 80.8193L101.4 80.8165C102.349 80.728 103.192 81.4271 103.31 82.3733C103.401 83.352 102.705 84.2246 101.726 84.3159L91.2691 85.4112L91.2394 85.414ZM108.221 83.71C107.242 83.8013 106.367 83.0753 106.273 82.067L104.51 63.1763C104.416 62.168 105.142 61.2926 106.121 61.2013C107.129 61.1073 108.005 61.8333 108.099 62.8416L109.861 81.7323C109.955 82.7406 109.229 83.616 108.221 83.71ZM117.958 60.3064C124.156 59.7282 129.697 64.2966 130.275 70.4946C130.854 76.6927 126.256 82.2369 120.058 82.8152L119.998 82.8207L115.326 83.0771C114.344 83.1388 113.528 82.4072 113.437 81.4286L111.686 62.6565C111.594 61.6779 112.293 60.8349 113.302 60.7408L117.958 60.3064ZM119.752 79.224C123.993 78.8284 127.112 75.0674 126.717 70.8266C126.321 66.5859 122.501 63.4723 118.29 63.8651L115.413 64.1335L116.838 79.4062L119.752 79.224ZM154.972 76.8955C155.5 77.7437 155.244 78.8445 154.393 79.3427C153.575 79.8677 152.474 79.6115 151.949 78.793L149.204 74.3825L149.174 74.3852L139.032 75.3314C138.943 75.3397 138.884 75.3453 138.822 75.3211L137.115 80.117C136.88 80.7971 136.263 81.2435 135.611 81.3043C135.344 81.3292 135.101 81.2921 134.853 81.1956C133.924 80.8634 133.442 79.8614 133.774 78.933L140.688 59.4123C140.926 58.7619 141.483 58.321 142.163 58.2278L142.192 58.225C142.874 58.1614 143.504 58.4915 143.885 59.0542L154.972 76.8955ZM140.123 71.6399L147.093 70.9898L142.799 64.0913L140.123 71.6399ZM173.696 55.8543C174.525 56.4052 174.746 57.4914 174.225 58.3177L167.631 68.4455L168.375 76.4229C168.467 77.4015 167.768 78.2445 166.789 78.3358C165.81 78.4271 164.938 77.7308 164.846 76.7521L164.102 68.7747L155.872 59.7606C155.207 59.0449 155.25 57.9042 155.966 57.2391C156.712 56.5713 157.825 56.6469 158.49 57.3626L165.585 65.1066L171.232 56.3833C171.753 55.5569 172.869 55.3331 173.696 55.8543Z" fill="#004E64"/>
<path d="M57.0887 78.3993L57.7334 78.3392L57.6732 77.6945L57.0285 77.7547L57.0887 78.3993ZM46.1457 79.4202L46.0856 78.7756L45.4409 78.8357L45.501 79.4804L46.1457 79.4202ZM45.8109 75.8319L45.1663 75.892L45.2264 76.5367L45.8711 76.4766L45.8109 75.8319ZM56.7539 74.811L56.8141 75.4557L57.4588 75.3955L57.3986 74.7509L56.7539 74.811ZM57.6665 65.0338L57.7267 65.6785C58.3561 65.6197 58.9394 66.0887 58.9996 66.7341L59.6443 66.674L60.289 66.6138C60.1611 65.2427 58.9342 64.2652 57.6064 64.3891L57.6665 65.0338ZM59.6443 66.674L58.9996 66.7341L60.762 85.6249L61.4067 85.5647L62.0514 85.5046L60.289 66.6138L59.6443 66.674ZM61.4067 85.5647L60.762 85.6249C60.8222 86.2703 60.3358 86.8391 59.7063 86.8978L59.7664 87.5425L59.8266 88.1872C61.1544 88.0633 62.1793 86.8758 62.0514 85.5046L61.4067 85.5647ZM59.7664 87.5425L59.7063 86.8978C59.054 86.9586 58.4942 86.4944 58.4333 85.8421L57.7887 85.9023L57.144 85.9624C57.2713 87.3268 58.4622 88.3145 59.8266 88.1872L59.7664 87.5425ZM57.7887 85.9023L58.4333 85.8421L57.7334 78.3392L57.0887 78.3993L56.444 78.4595L57.144 85.9624L57.7887 85.9023ZM57.0887 78.3993L57.0285 77.7547L46.0856 78.7756L46.1457 79.4202L46.2059 80.0649L57.1488 79.044L57.0887 78.3993ZM46.1457 79.4202L45.501 79.4804L46.201 86.9833L46.8457 86.9232L47.4904 86.863L46.7904 79.3601L46.1457 79.4202ZM46.8457 86.9232L46.201 86.9833C46.2612 87.6287 45.7748 88.1975 45.1453 88.2562L45.2054 88.9009L45.2656 89.5456C46.5934 89.4217 47.6183 88.2342 47.4904 86.863L46.8457 86.9232ZM45.2054 88.9009L45.1453 88.2562C44.4931 88.3171 43.9332 87.8528 43.8724 87.2005L43.2277 87.2607L42.583 87.3208C42.7103 88.6852 43.9012 89.6729 45.2656 89.5456L45.2054 88.9009ZM43.2277 87.2607L43.8724 87.2005L42.11 68.3098L41.4653 68.37L40.8206 68.4301L42.583 87.3208L43.2277 87.2607ZM41.4653 68.37L42.11 68.3098C42.0491 67.6576 42.5134 67.0977 43.1657 67.0369L43.1055 66.3922L43.0454 65.7475C41.681 65.8748 40.6933 67.0658 40.8206 68.4301L41.4653 68.37ZM43.1055 66.3922L43.1657 67.0369C43.7952 66.9782 44.3784 67.4472 44.4386 68.0926L45.0833 68.0324L45.728 67.9723C45.6001 66.6011 44.3732 65.6236 43.0454 65.7475L43.1055 66.3922ZM45.0833 68.0324L44.4386 68.0926L45.1663 75.892L45.8109 75.8319L46.4556 75.7718L45.728 67.9723L45.0833 68.0324ZM45.8109 75.8319L45.8711 76.4766L56.8141 75.4557L56.7539 74.811L56.6938 74.1663L45.7508 75.1872L45.8109 75.8319ZM56.7539 74.811L57.3986 74.7509L56.671 66.9514L56.0263 67.0115L55.3816 67.0717L56.1092 74.8711L56.7539 74.811ZM56.0263 67.0115L56.671 66.9514C56.6101 66.2991 57.0744 65.7393 57.7267 65.6785L57.6665 65.0338L57.6064 64.3891C56.242 64.5164 55.2543 65.7073 55.3816 67.0717L56.0263 67.0115ZM75.581 86.7551L75.5208 86.1104C69.6492 86.6582 64.4529 82.3488 63.9051 76.4771L63.2605 76.5373L62.6158 76.5974C63.23 83.1812 69.0574 88.014 75.6411 87.3998L75.581 86.7551ZM63.2605 76.5373L63.9051 76.4771C63.3602 70.6362 67.6685 65.439 73.5412 64.8911L73.4811 64.2464L73.4209 63.6017C66.8383 64.2158 62.0042 70.0422 62.6158 76.5974L63.2605 76.5373ZM73.4811 64.2464L73.5412 64.8911C79.3821 64.3462 84.5794 68.6544 85.1273 74.5272L85.7719 74.467L86.4166 74.4069C85.8025 67.8242 79.9761 62.9901 73.4209 63.6017L73.4811 64.2464ZM85.7719 74.467L85.1273 74.5272C85.6723 80.3692 81.3628 85.5654 75.5208 86.1104L75.581 86.7551L75.6411 87.3998C82.1952 86.7884 87.0281 80.961 86.4166 74.4069L85.7719 74.467ZM73.8158 67.8347L73.7557 67.19C69.1605 67.6187 65.7779 71.6939 66.2041 76.2626L66.8488 76.2025L67.4935 76.1424C67.134 72.2889 69.9896 68.842 73.876 68.4794L73.8158 67.8347ZM66.8488 76.2025L66.2041 76.2626C66.633 80.8595 70.7095 84.2403 75.3064 83.8115L75.2462 83.1668L75.1861 82.5221C71.3013 82.8845 67.8559 80.0271 67.4935 76.1424L66.8488 76.2025ZM75.2462 83.1668L75.3064 83.8115C79.8752 83.3852 83.2542 79.3072 82.8255 74.712L82.1808 74.7721L81.5361 74.8323C81.8987 78.7186 79.0395 82.1626 75.1861 82.5221L75.2462 83.1668ZM82.1808 74.7721L82.8255 74.712C82.3994 70.1448 78.3229 66.764 73.7557 67.19L73.8158 67.8347L73.876 68.4794C77.7311 68.1198 81.1765 70.9772 81.5361 74.8323L82.1808 74.7721ZM89.9765 85.0232L90.3898 84.5248L90.3898 84.5248L89.9765 85.0232ZM92.6599 81.7217L92.0152 81.7818L92.0759 82.4331L92.7266 82.3657L92.6599 81.7217ZM101.37 80.8193L101.31 80.1746L101.304 80.1753L101.37 80.8193ZM103.31 82.3733L103.955 82.3132L103.954 82.3031L103.953 82.2931L103.31 82.3733ZM101.726 84.3159L101.666 83.6712L101.659 83.672L101.726 84.3159ZM91.2691 85.4112L91.3292 86.0559L91.3365 86.0552L91.2691 85.4112ZM91.2394 85.414L91.1793 84.7693C90.9026 84.7951 90.6121 84.7092 90.3898 84.5248L89.9765 85.0232L89.5631 85.5216C90.0541 85.9288 90.6865 86.1158 91.2995 86.0586L91.2394 85.414ZM89.9765 85.0232L90.3898 84.5248C90.1501 84.3261 89.9977 84.0521 89.9712 83.7674L89.3265 83.8275L88.6818 83.8876C88.7438 84.5518 89.0895 85.1288 89.5631 85.5216L89.9765 85.0232ZM89.3265 83.8275L89.9712 83.7674L88.1977 64.758L87.553 64.8182L86.9083 64.8783L88.6818 83.8876L89.3265 83.8275ZM87.553 64.8182L88.1977 64.758C88.1403 64.1425 88.5996 63.6059 89.1996 63.5499L89.1395 62.9052L89.0793 62.2605C87.7814 62.3816 86.7832 63.5365 86.9083 64.8783L87.553 64.8182ZM89.1395 62.9052L89.1996 63.5499C89.8222 63.4918 90.3496 63.9292 90.4077 64.5518L91.0524 64.4917L91.6971 64.4315C91.5726 63.0968 90.414 62.136 89.0793 62.2605L89.1395 62.9052ZM91.0524 64.4917L90.4077 64.5518L92.0152 81.7818L92.6599 81.7217L93.3045 81.6615L91.6971 64.4315L91.0524 64.4917ZM92.6599 81.7217L92.7266 82.3657L101.437 81.4634L101.37 80.8193L101.304 80.1753L92.5931 81.0776L92.6599 81.7217ZM101.37 80.8193L101.43 81.464L101.46 81.4612L101.4 80.8165L101.34 80.1719L101.31 80.1746L101.37 80.8193ZM101.4 80.8165L101.46 81.4612C102.049 81.4063 102.591 81.8428 102.668 82.4536L103.31 82.3733L103.953 82.2931C103.793 81.0115 102.649 80.0498 101.34 80.1719L101.4 80.8165ZM103.31 82.3733L102.665 82.4335C102.725 83.0703 102.275 83.6145 101.666 83.6712L101.726 84.3159L101.787 84.9606C103.135 84.8348 104.078 83.6337 103.955 82.3132L103.31 82.3733ZM101.726 84.3159L101.659 83.672L91.2016 84.7672L91.2691 85.4112L91.3365 86.0552L101.794 84.9599L101.726 84.3159ZM91.2691 85.4112L91.2089 84.7665L91.1793 84.7693L91.2394 85.414L91.2995 86.0586L91.3292 86.0559L91.2691 85.4112ZM108.221 83.71L108.161 83.0654C107.545 83.1228 106.979 82.6661 106.917 82.0069L106.273 82.067L105.628 82.1272C105.755 83.4846 106.939 84.4799 108.281 84.3547L108.221 83.71ZM106.273 82.067L106.917 82.0069L105.155 63.1162L104.51 63.1763L103.866 63.2365L105.628 82.1272L106.273 82.067ZM104.51 63.1763L105.155 63.1162C105.094 62.457 105.565 61.9034 106.181 61.846L106.121 61.2013L106.061 60.5566C104.719 60.6818 103.739 61.8791 103.866 63.2365L104.51 63.1763ZM106.121 61.2013L106.181 61.846C106.833 61.7852 107.393 62.2495 107.454 62.9017L108.099 62.8416L108.743 62.7814C108.616 61.4171 107.425 60.4293 106.061 60.5566L106.121 61.2013ZM108.099 62.8416L107.454 62.9017L109.216 81.7924L109.861 81.7323L110.506 81.6721L108.743 62.7814L108.099 62.8416ZM109.861 81.7323L109.216 81.7924C109.277 82.4447 108.813 83.0045 108.161 83.0654L108.221 83.71L108.281 84.3547C109.645 84.2275 110.633 83.0365 110.506 81.6721L109.861 81.7323ZM119.998 82.8207L120.034 83.4672L120.046 83.4665L120.058 83.4654L119.998 82.8207ZM115.326 83.0771L115.29 82.4306L115.285 82.4309L115.326 83.0771ZM119.752 79.224L119.793 79.8703L119.803 79.8697L119.813 79.8687L119.752 79.224ZM115.413 64.1335L115.353 63.4888L114.708 63.5489L114.768 64.1936L115.413 64.1335ZM116.838 79.4062L116.193 79.4664L116.252 80.0916L116.878 80.0524L116.838 79.4062ZM117.958 60.3064L118.018 60.9511C123.862 60.4059 129.086 64.715 129.631 70.5548L130.275 70.4946L130.92 70.4345C130.308 63.8782 124.449 59.0505 117.898 59.6617L117.958 60.3064ZM130.275 70.4946L129.631 70.5548C130.176 76.3968 125.839 81.6255 119.997 82.1705L120.058 82.8152L120.118 83.4599C126.672 82.8484 131.532 76.9886 130.92 70.4345L130.275 70.4946ZM120.058 82.8152L119.997 82.1705L119.938 82.176L119.998 82.8207L120.058 83.4654L120.118 83.4599L120.058 82.8152ZM119.998 82.8207L119.963 82.1742L115.29 82.4306L115.326 83.0771L115.361 83.7236L120.034 83.4672L119.998 82.8207ZM115.326 83.0771L115.285 82.4309C114.67 82.4696 114.142 82.0156 114.082 81.3684L113.437 81.4286L112.792 81.4887C112.914 82.7988 114.019 83.808 115.366 83.7233L115.326 83.0771ZM113.437 81.4286L114.082 81.3684L112.33 62.5963L111.686 62.6565L111.041 62.7166L112.792 81.4887L113.437 81.4286ZM111.686 62.6565L112.33 62.5963C112.273 61.9808 112.702 61.447 113.362 61.3855L113.302 60.7408L113.242 60.0961C111.884 60.2227 110.916 61.3749 111.041 62.7166L111.686 62.6565ZM113.302 60.7408L113.362 61.3855L118.018 60.9511L117.958 60.3064L117.898 59.6617L113.242 60.0961L113.302 60.7408ZM119.752 79.224L119.813 79.8687C124.409 79.4399 127.79 75.3633 127.361 70.7665L126.717 70.8266L126.072 70.8868C126.434 74.7715 123.577 78.2169 119.692 78.5794L119.752 79.224ZM126.717 70.8266L127.361 70.7665C126.932 66.1648 122.792 62.7948 118.23 63.2204L118.29 63.8651L118.35 64.5098C122.21 64.1497 125.71 67.0069 126.072 70.8868L126.717 70.8266ZM118.29 63.8651L118.23 63.2204L115.353 63.4888L115.413 64.1335L115.473 64.7782L118.35 64.5098L118.29 63.8651ZM115.413 64.1335L114.768 64.1936L116.193 79.4664L116.838 79.4062L117.483 79.3461L116.058 64.0733L115.413 64.1335ZM116.838 79.4062L116.878 80.0524L119.793 79.8703L119.752 79.224L119.712 78.5778L116.798 78.76L116.838 79.4062ZM154.972 76.8955L154.422 77.2373L154.423 77.2376L154.972 76.8955ZM154.393 79.3427L154.066 78.7839L154.055 78.7906L154.043 78.7977L154.393 79.3427ZM151.949 78.793L151.399 79.1351L151.404 79.1426L151.949 78.793ZM149.204 74.3825L149.754 74.0404L149.542 73.7006L149.144 73.7378L149.204 74.3825ZM138.822 75.3211L139.056 74.7176L138.435 74.4762L138.212 75.1041L138.822 75.3211ZM137.115 80.117L136.505 79.8999L136.503 79.905L137.115 80.117ZM134.853 81.1956L135.087 80.592L135.079 80.5889L135.071 80.5859L134.853 81.1956ZM133.774 78.933L134.384 79.1511L134.384 79.1492L133.774 78.933ZM140.688 59.4123L140.08 59.1895L140.077 59.1962L140.688 59.4123ZM142.163 58.2278L142.103 57.5831L142.089 57.5844L142.075 57.5863L142.163 58.2278ZM143.885 59.0542L144.435 58.7125L144.428 58.7015L144.421 58.6908L143.885 59.0542ZM140.123 71.6399L139.513 71.4236L139.175 72.3788L140.184 72.2846L140.123 71.6399ZM147.093 70.9898L147.153 71.6345L148.196 71.5371L147.642 70.6477L147.093 70.9898ZM142.799 64.0913L143.349 63.7492L142.639 62.6073L142.189 63.8749L142.799 64.0913ZM154.972 76.8955L154.423 77.2376C154.765 77.7879 154.591 78.4767 154.066 78.7839L154.393 79.3427L154.72 79.9014C155.897 79.2123 156.235 77.6995 155.522 76.5534L154.972 76.8955ZM154.393 79.3427L154.043 78.7977C153.535 79.1241 152.831 78.9697 152.494 78.4434L151.949 78.793L151.404 79.1426C152.116 80.2533 153.614 80.6114 154.743 79.8877L154.393 79.3427ZM151.949 78.793L152.498 78.4509L149.754 74.0404L149.204 74.3825L148.654 74.7246L151.399 79.1351L151.949 78.793ZM149.204 74.3825L149.144 73.7378L149.114 73.7405L149.174 74.3852L149.234 75.0299L149.264 75.0272L149.204 74.3825ZM149.174 74.3852L149.114 73.7405L138.972 74.6867L139.032 75.3314L139.092 75.9761L149.234 75.0299L149.174 74.3852ZM139.032 75.3314L138.972 74.6867C138.948 74.689 138.936 74.6901 138.926 74.6908C138.917 74.6914 138.92 74.6909 138.928 74.6911C138.938 74.6912 138.956 74.6921 138.98 74.6963C139.004 74.7006 139.03 74.7076 139.056 74.7176L138.822 75.3211L138.587 75.9247C138.817 76.0141 139.037 75.9812 139.092 75.9761L139.032 75.3314ZM138.822 75.3211L138.212 75.1041L136.505 79.8999L137.115 80.117L137.725 80.334L139.432 75.5382L138.822 75.3211ZM137.115 80.117L136.503 79.905C136.354 80.3367 135.959 80.6215 135.551 80.6596L135.611 81.3043L135.671 81.949C136.567 81.8654 137.405 81.2575 137.727 80.329L137.115 80.117ZM135.611 81.3043L135.551 80.6596C135.389 80.6747 135.247 80.6541 135.087 80.592L134.853 81.1956L134.618 81.7991C134.955 81.93 135.299 81.9838 135.671 81.949L135.611 81.3043ZM134.853 81.1956L135.071 80.5859C134.474 80.3725 134.174 79.738 134.384 79.1511L133.774 78.933L133.164 78.7149C132.71 79.9848 133.374 81.3543 134.635 81.8052L134.853 81.1956ZM133.774 78.933L134.384 79.1492L141.298 59.6285L140.688 59.4123L140.077 59.1962L133.164 78.7168L133.774 78.933ZM140.688 59.4123L141.296 59.6352C141.451 59.2128 141.806 58.9304 142.251 58.8692L142.163 58.2278L142.075 57.5863C141.161 57.7117 140.402 58.311 140.08 59.1895L140.688 59.4123ZM142.163 58.2278L142.223 58.8724L142.253 58.8697L142.192 58.225L142.132 57.5803L142.103 57.5831L142.163 58.2278ZM142.192 58.225L142.253 58.8697C142.678 58.83 143.087 59.0316 143.349 59.4176L143.885 59.0542L144.421 58.6908C143.92 57.9515 143.071 57.4927 142.132 57.5803L142.192 58.225ZM143.885 59.0542L143.335 59.396L154.422 77.2373L154.972 76.8955L155.522 76.5538L144.435 58.7125L143.885 59.0542ZM140.123 71.6399L140.184 72.2846L147.153 71.6345L147.093 70.9898L147.032 70.3451L140.063 70.9952L140.123 71.6399ZM147.093 70.9898L147.642 70.6477L143.349 63.7492L142.799 64.0913L142.25 64.4334L146.543 71.3319L147.093 70.9898ZM142.799 64.0913L142.189 63.8749L139.513 71.4236L140.123 71.6399L140.734 71.8563L143.41 64.3076L142.799 64.0913ZM173.696 55.8543L174.054 55.315L174.047 55.3107L174.041 55.3067L173.696 55.8543ZM174.225 58.3177L174.767 58.671L174.772 58.6631L174.225 58.3177ZM167.631 68.4455L167.088 68.0922L166.965 68.2811L166.986 68.5056L167.631 68.4455ZM164.102 68.7747L164.747 68.7146L164.727 68.4984L164.58 68.3381L164.102 68.7747ZM155.872 59.7606L156.351 59.3241L156.347 59.3199L155.872 59.7606ZM155.966 57.2391L155.534 56.7568L155.525 56.7648L155.966 57.2391ZM158.49 57.3626L158.968 56.9252L158.965 56.9218L158.49 57.3626ZM165.585 65.1066L165.107 65.5439L165.673 66.1615L166.128 65.4584L165.585 65.1066ZM171.232 56.3833L171.776 56.7352L171.78 56.7287L171.232 56.3833ZM173.696 55.8543L173.337 56.3936C173.871 56.7481 174.012 57.4406 173.677 57.9723L174.225 58.3177L174.772 58.6631C175.479 57.5421 175.179 56.0622 174.054 55.315L173.696 55.8543ZM174.225 58.3177L173.682 57.9645L167.088 68.0922L167.631 68.4455L168.174 68.7987L174.767 58.671L174.225 58.3177ZM167.631 68.4455L166.986 68.5056L167.731 76.483L168.375 76.4229L169.02 76.3627L168.276 68.3853L167.631 68.4455ZM168.375 76.4229L167.731 76.483C167.789 77.1056 167.351 77.633 166.729 77.6911L166.789 78.3358L166.849 78.9805C168.184 78.856 169.145 77.6974 169.02 76.3627L168.375 76.4229ZM166.789 78.3358L166.729 77.6911C166.092 77.7505 165.548 77.3005 165.491 76.692L164.846 76.7521L164.202 76.8123C164.327 78.161 165.529 79.1037 166.849 78.9805L166.789 78.3358ZM164.846 76.7521L165.491 76.692L164.747 68.7146L164.102 68.7747L163.457 68.8349L164.202 76.8123L164.846 76.7521ZM164.102 68.7747L164.58 68.3381L156.351 59.3241L155.872 59.7606L155.394 60.1972L163.624 69.2113L164.102 68.7747ZM155.872 59.7606L156.347 59.3199C155.926 58.8668 155.953 58.1357 156.407 57.7134L155.966 57.2391L155.525 56.7648C154.548 57.6727 154.489 59.2231 155.398 60.2014L155.872 59.7606ZM155.966 57.2391L156.398 57.7214C156.873 57.2963 157.584 57.3383 158.016 57.8033L158.49 57.3626L158.965 56.9218C158.067 55.9554 156.55 55.8463 155.534 56.7569L155.966 57.2391ZM158.49 57.3626L158.013 57.8L165.107 65.5439L165.585 65.1066L166.062 64.6692L158.968 56.9252L158.49 57.3626ZM165.585 65.1066L166.128 65.4584L171.776 56.7352L171.232 56.3833L170.689 56.0314L165.041 64.7547L165.585 65.1066ZM171.232 56.3833L171.78 56.7287C172.1 56.2206 172.81 56.0614 173.35 56.402L173.696 55.8543L174.041 55.3067C172.928 54.6048 171.406 54.8932 170.685 56.0379L171.232 56.3833Z" fill="#004E64"/>
<path d="M115.443 14.5615C83.1978 13.7278 66.7973 40.3898 62.6277 53.825L46.9768 52.802C54.0421 36.0276 77.6266 2.479 115.443 2.479C153.259 2.479 174.806 26.9111 180.852 39.1272L166.63 42.9561H165.81C162.567 33.922 147.688 15.3953 115.443 14.5615Z" fill="#FECE00" stroke="#004E64" stroke-width="4"/>
</svg>
