<svg width="207" height="188" viewBox="0 0 207 188" fill="none" xmlns="http://www.w3.org/2000/svg">
<path d="M130.628 38.0005C145.185 38.0005 157.358 48.367 160.396 62.2329V63.0005L161.128 121.583C156.556 119.948 143.214 137 133 143.5C127.5 147 121.5 149.5 105 151.233H101.565C80 150 89.0981 145 69 145C63.5522 145 48.933 120.06 44.1279 121.891L44.8594 64.0005V62.2329C47.8974 48.367 60.0704 38.0005 74.6279 38.0005C87.1698 38.0005 97.9422 45.6953 102.628 56.6929C107.314 45.6953 118.086 38.0005 130.628 38.0005Z" fill="#004E64"/>
<path d="M130.628 33.0005C145.185 33.0005 157.358 43.367 160.396 57.2329V58.0005L161.128 116.583C156.556 114.948 151.632 114.055 146.498 114.055C126.4 114.055 109.492 127.701 104.526 146.233H101.565C96.6 127.701 79.6918 114.055 59.5938 114.055C54.1459 114.055 48.933 115.06 44.1279 116.891L44.8594 59.0005V57.2329C47.8974 43.367 60.0704 33.0005 74.6279 33.0005C87.1698 33.0005 97.9422 40.6953 102.628 51.6929C107.314 40.6953 118.086 33.0005 130.628 33.0005Z" fill="#FFF2BF" stroke="#004E64" stroke-width="3"/>
<path d="M52.729 92.0091C59.011 85.8965 76.0868 77.9429 94.135 95.0288" stroke="#004E64" stroke-width="3" stroke-linecap="round" stroke-linejoin="round"/>
<path d="M54.2539 58.2178C60.5359 52.1053 77.6118 44.1516 95.6599 61.2375" stroke="#004E64" stroke-width="3" stroke-linecap="round" stroke-linejoin="round"/>
<path d="M53.9043 65.9664C60.1862 59.8538 77.2621 51.9001 95.3103 68.9861" stroke="#004E64" stroke-width="3" stroke-linecap="round" stroke-linejoin="round"/>
<path d="M53.4895 75.1578C59.7715 69.0452 76.8473 61.0915 94.8955 78.1775" stroke="#004E64" stroke-width="3" stroke-linecap="round" stroke-linejoin="round"/>
<path d="M53.0747 84.3494C59.3567 78.2369 76.4326 70.2832 94.4807 87.3691" stroke="#004E64" stroke-width="3" stroke-linecap="round" stroke-linejoin="round"/>
<path d="M110.384 94.1688C115.992 87.4322 132.141 77.7345 151.879 92.837" stroke="#004E64" stroke-width="3" stroke-linecap="round" stroke-linejoin="round"/>
<path d="M108.363 60.4037C113.971 53.6671 130.12 43.9694 149.858 59.0719" stroke="#004E64" stroke-width="3" stroke-linecap="round" stroke-linejoin="round"/>
<path d="M108.826 68.1461C114.434 61.4095 130.583 51.7118 150.321 66.8143" stroke="#004E64" stroke-width="3" stroke-linecap="round" stroke-linejoin="round"/>
<path d="M109.376 77.3307C114.984 70.5941 131.133 60.8964 150.871 75.9989" stroke="#004E64" stroke-width="3" stroke-linecap="round" stroke-linejoin="round"/>
<path d="M109.926 86.5153C115.534 79.7786 131.683 70.0809 151.421 85.1835" stroke="#004E64" stroke-width="3" stroke-linecap="round" stroke-linejoin="round"/>
<path d="M43.1481 79.5636C44.6893 79.2564 44.6328 76.7986 44.5104 85.2911C44.4358 90.4627 44.5104 85.0762 44.5104 92.7911C44.5104 95.7243 42.1281 97.6957 42.1266 100.497C42.5226 100.972 42.9005 101.466 43.2584 101.98C46.0257 100.547 49.4754 98.4977 49.9811 98.4972C51.281 98.4972 52.1402 98.6412 53.2633 98.962C55.6411 99.6414 55.2721 103.054 55.2721 104.89C55.2719 107.554 51.1424 108.549 47.6979 109.924C59.5113 129.646 81.0639 142.791 105.652 142.791C128.588 142.791 148.875 131.359 161.094 113.805C158.419 110.47 151.626 108.188 151.626 104.5C151.626 102.664 152.248 100.679 154.626 100C155.749 99.6793 158.326 100.359 159.626 100.359C160.276 100.359 163.126 102.142 163.626 100C164.107 97.9378 160.51 96.2018 160.51 95.0001V81.2911C160.511 77.7706 165.614 79.5507 167.156 79.8575C196.97 85.7916 207.471 105.196 204.384 121.855C204.054 124.619 203.178 127.365 201.713 129.936C182.728 163.25 146.836 185.791 105.652 185.791C63.1541 185.791 26.2995 161.798 7.82385 126.707C-6.36597 103.255 11.6049 85.8417 43.1481 79.5636Z" fill="#FECE00"/>
<path d="M43.1481 79.5636L43.4409 81.0347L43.4413 81.0347L43.1481 79.5636ZM44.5104 85.2911L43.0105 85.2695L43.0105 85.2695L44.5104 85.2911ZM44.5104 92.7911L46.0104 92.7911L46.0104 92.7911L44.5104 92.7911ZM42.1266 100.497L40.6266 100.496L40.6263 101.041L40.9751 101.459L42.1266 100.497ZM43.2584 101.98L42.0276 102.837L42.7796 103.917L43.948 103.312L43.2584 101.98ZM49.9811 98.4972L49.9811 96.9972L49.9796 96.9972L49.9811 98.4972ZM53.2633 98.962L53.6754 97.5198L53.6754 97.5198L53.2633 98.962ZM55.2721 104.89L56.7721 104.89V104.89H55.2721ZM47.6979 109.924L47.1417 108.531L45.5061 109.184L46.4111 110.695L47.6979 109.924ZM105.652 142.791L105.652 144.291L105.652 144.291L105.652 142.791ZM161.094 113.805L162.325 114.662L162.966 113.741L162.264 112.866L161.094 113.805ZM151.626 104.5L150.126 104.5V104.5H151.626ZM154.626 100L154.214 98.5578L154.214 98.5578L154.626 100ZM159.626 100.359L159.626 98.8585H159.626V100.359ZM163.626 100L165.086 100.341L165.086 100.341L163.626 100ZM160.51 81.2911L159.01 81.291V81.2911H160.51ZM167.156 79.8575L167.449 78.3864L167.449 78.3864L167.156 79.8575ZM204.384 121.855L202.909 121.581L202.901 121.629L202.895 121.676L204.384 121.855ZM201.713 129.936L203.016 130.678L203.016 130.678L201.713 129.936ZM105.652 185.791L105.652 187.291L105.652 187.291L105.652 185.791ZM7.82385 126.707L9.15112 126.008L9.13032 125.969L9.10721 125.931L7.82385 126.707ZM43.1481 79.5636L43.4413 81.0347C44.1783 80.8878 44.7225 80.4756 44.8655 80.3794C44.9147 80.3462 44.9092 80.3519 44.8816 80.3667C44.8663 80.375 44.7209 80.4559 44.4958 80.4872C44.217 80.5261 43.8386 80.4833 43.4973 80.2341C43.2066 80.0219 43.0932 79.7667 43.0601 79.6838C43.0045 79.5447 43.0252 79.5026 43.0429 79.7663C43.0573 79.9807 43.0651 80.3002 43.0659 80.7727C43.0674 81.7157 43.0413 83.1329 43.0105 85.2695L44.5104 85.2911L46.0102 85.3128C46.0406 83.2031 46.0675 81.7428 46.0659 80.7678C46.0651 80.2812 46.0574 79.8815 46.0362 79.5654C46.0182 79.2986 45.9833 78.9146 45.8461 78.5712C45.7722 78.3861 45.6115 78.0631 45.2663 77.8111C44.8703 77.5221 44.4302 77.4674 44.0816 77.516C43.7867 77.5571 43.5636 77.6693 43.4617 77.724C43.3476 77.7853 43.2468 77.8527 43.1912 77.89C42.9152 78.0757 42.8885 78.0858 42.8549 78.0925L43.1481 79.5636ZM44.5104 85.2911L43.0105 85.2695C42.9737 87.8218 42.9723 87.8271 42.9833 88.1403C42.9916 88.3736 43.0104 88.9293 43.0104 92.7911L44.5104 92.7911L46.0104 92.7911C46.0104 88.9381 45.9919 88.3295 45.9815 88.0345C45.9739 87.8193 45.9724 87.9321 46.0102 85.3128L44.5104 85.2911ZM44.5104 92.7911H43.0104C43.0104 93.8596 42.5861 94.7868 41.9734 96.0308C41.4056 97.1838 40.6276 98.6892 40.6266 100.496L42.1266 100.497L43.6266 100.498C43.6271 99.5037 44.041 98.6227 44.6647 97.3563C45.2436 96.1809 46.0104 94.6558 46.0104 92.7911H44.5104ZM42.1266 100.497L40.9751 101.459C41.3435 101.9 41.6949 102.359 42.0276 102.837L43.2584 101.98L44.4892 101.122C44.1062 100.572 43.7018 100.043 43.2781 99.5359L42.1266 100.497ZM43.2584 101.98L43.948 103.312C45.3494 102.586 46.9379 101.697 48.1844 101.019C48.8194 100.674 49.36 100.386 49.7667 100.187C49.9719 100.086 50.1191 100.02 50.2146 99.9821C50.2628 99.963 50.2769 99.9594 50.2657 99.9627C50.2592 99.9645 50.2345 99.9714 50.196 99.9785C50.1614 99.9848 50.0853 99.9971 49.9825 99.9972L49.9811 98.4972L49.9796 96.9972C49.7373 96.9974 49.5345 97.0515 49.4396 97.0786C49.3209 97.1126 49.2064 97.1546 49.1064 97.1943C48.9056 97.2741 48.6788 97.3792 48.4462 97.4932C47.9773 97.723 47.3878 98.0375 46.7512 98.3837C45.4547 99.0887 43.9347 99.9405 42.5689 100.648L43.2584 101.98ZM49.9811 98.4972V99.9972C51.1282 99.9972 51.8486 100.118 52.8512 100.404L53.2633 98.962L53.6754 97.5198C52.4318 97.1644 51.4338 96.9972 49.9811 96.9972V98.4972ZM53.2633 98.962L52.8512 100.404C53.2078 100.506 53.5133 100.791 53.682 101.751C53.8569 102.748 53.7721 103.815 53.7721 104.89H55.2721H56.7721C56.7721 104.129 56.8718 102.572 56.6368 101.233C56.3955 99.8584 55.6967 98.0973 53.6754 97.5198L53.2633 98.962ZM55.2721 104.89L53.7721 104.89C53.7721 105.293 53.497 105.832 52.0897 106.557C50.7048 107.27 49.0333 107.776 47.1417 108.531L47.6979 109.924L48.2541 111.317C49.8069 110.697 51.9225 110.017 53.4635 109.224C54.9822 108.441 56.772 107.15 56.7721 104.89L55.2721 104.89ZM47.6979 109.924L46.4111 110.695C58.4847 130.851 80.516 144.291 105.652 144.291L105.652 142.791L105.652 141.291C81.6119 141.291 60.538 128.441 48.9847 109.153L47.6979 109.924ZM105.652 142.791L105.652 144.291C129.099 144.291 149.837 132.602 162.325 114.662L161.094 113.805L159.863 112.948C147.913 130.116 128.077 141.291 105.652 141.291L105.652 142.791ZM161.094 113.805L162.264 112.866C161.469 111.875 160.413 111.013 159.371 110.252C158.399 109.541 157.119 108.699 156.227 108.063C155.228 107.351 154.419 106.701 153.863 106.06C153.316 105.427 153.126 104.929 153.126 104.5H151.626H150.126C150.126 105.915 150.784 107.086 151.594 108.022C152.396 108.95 153.453 109.77 154.486 110.506C155.627 111.319 156.547 111.903 157.601 112.674C158.585 113.393 159.382 114.068 159.924 114.744L161.094 113.805ZM151.626 104.5L153.126 104.5C153.126 103.73 153.259 103.057 153.544 102.548C153.802 102.086 154.228 101.674 155.038 101.442L154.626 100L154.214 98.5578C152.646 99.0058 151.572 99.9258 150.924 101.085C150.303 102.197 150.126 103.434 150.126 104.5L151.626 104.5ZM154.626 100L155.038 101.442C155.081 101.43 155.257 101.403 155.632 101.419C155.98 101.435 156.393 101.482 156.856 101.545C157.684 101.659 158.84 101.859 159.626 101.859V100.359V98.8585C159.112 98.8585 158.329 98.7189 157.263 98.5729C156.778 98.5065 156.255 98.4439 155.764 98.4222C155.299 98.4017 154.732 98.4097 154.214 98.5578L154.626 100ZM159.626 100.359L159.625 101.859C159.45 101.858 159.366 101.815 159.512 101.861C159.614 101.894 159.743 101.941 159.94 102.013C160.296 102.143 160.826 102.337 161.377 102.451C161.899 102.56 162.668 102.65 163.421 102.359C164.3 102.02 164.866 101.284 165.086 100.341L163.626 100L162.165 99.6592C162.135 99.7871 162.158 99.6313 162.342 99.5603C162.399 99.5382 162.321 99.5836 161.988 99.5142C161.682 99.4506 161.347 99.3327 160.969 99.1949C160.8 99.1331 160.596 99.0578 160.416 99.0008C160.279 98.9576 159.964 98.8587 159.626 98.8585L159.626 100.359ZM163.626 100L165.086 100.341C165.321 99.3345 165.028 98.4459 164.644 97.7735C164.271 97.1206 163.747 96.5567 163.311 96.1187C162.805 95.6113 162.481 95.3279 162.177 94.9914C162.042 94.8429 161.981 94.7561 161.959 94.718C161.932 94.673 162.01 94.7818 162.01 95.0001H160.51H159.01C159.01 95.5188 159.201 95.9447 159.369 96.2327C159.542 96.5277 159.758 96.7897 159.953 97.0052C160.307 97.3966 160.852 97.9014 161.186 98.2361C161.588 98.6401 161.874 98.9719 162.039 99.2621C162.194 99.5329 162.171 99.6346 162.165 99.6595L163.626 100ZM160.51 95.0001H162.01V81.2911H160.51H159.01V95.0001H160.51ZM160.51 81.2911L162.01 81.2912C162.01 80.8283 162.143 80.8008 162.144 80.8002C162.266 80.7218 162.583 80.6199 163.211 80.6384C163.803 80.6559 164.476 80.7728 165.141 80.9211C165.468 80.9941 165.777 81.0708 166.067 81.1426C166.342 81.2107 166.629 81.282 166.863 81.3287L167.156 79.8575L167.449 78.3864C167.298 78.3564 167.088 78.3049 166.789 78.2307C166.504 78.1601 166.161 78.0749 165.794 77.993C165.068 77.8312 164.176 77.6656 163.299 77.6397C162.458 77.6149 161.404 77.7089 160.52 78.2773C159.516 78.9235 159.01 79.9936 159.01 81.291L160.51 81.2911ZM167.156 79.8575L166.863 81.3287C181.497 84.2413 191.224 90.423 196.923 97.7548C202.621 105.084 204.376 113.664 202.909 121.581L204.384 121.855L205.859 122.128C207.479 113.387 205.527 103.934 199.292 95.9137C193.059 87.8952 182.629 81.4078 167.449 78.3864L167.156 79.8575ZM204.384 121.855L202.895 121.676C202.588 124.246 201.773 126.799 200.409 129.193L201.713 129.936L203.016 130.678C204.582 127.93 205.52 124.992 205.874 122.033L204.384 121.855ZM201.713 129.936L200.409 129.193C181.681 162.059 146.275 184.291 105.652 184.291L105.652 185.791L105.652 187.291C147.397 187.291 183.776 164.442 203.016 130.678L201.713 129.936ZM105.652 185.791L105.652 184.291C63.7333 184.291 27.3779 160.626 9.15112 126.008L7.82385 126.707L6.49658 127.406C25.2211 162.969 62.575 187.291 105.652 187.291L105.652 185.791ZM7.82385 126.707L9.10721 125.931C5.67401 120.256 4.2509 115.057 4.42019 110.384C4.58902 105.724 6.34573 101.462 9.49284 97.6501C15.8346 89.9682 27.8125 84.1453 43.4409 81.0347L43.1481 79.5636L42.8553 78.0925C26.9405 81.26 14.1613 87.2828 7.17935 95.7402C3.66457 99.9977 1.6177 104.879 1.42216 110.276C1.22706 115.66 2.87878 121.432 6.54048 127.484L7.82385 126.707Z" fill="#004E64"/>
<mask id="path-15-outside-1_2132_509" maskUnits="userSpaceOnUse" x="28.4803" y="117.682" width="153.735" height="61.8025" fill="black">
<rect fill="white" x="28.4803" y="117.682" width="153.735" height="61.8025"/>
<path d="M35.6172 144.813C31.064 140.212 31.1248 132.744 35.7258 128.191C40.3268 123.638 47.7729 123.677 52.3261 128.278C54.374 130.347 55.5862 133.069 55.7243 135.982C55.7847 137.012 54.9917 137.884 53.9403 137.922C52.9326 137.961 52.0607 137.168 52.0222 136.16C51.9231 134.167 51.0787 132.301 49.6844 130.892C46.569 127.744 41.4882 127.717 38.3401 130.833C35.1921 133.948 35.1656 139.029 38.281 142.177C39.7188 143.63 41.6197 144.494 43.6561 144.57C44.6852 144.598 45.4691 145.478 45.4418 146.507C45.3928 147.514 44.5344 148.32 43.5052 148.293C40.5275 148.146 37.7087 146.926 35.6172 144.813ZM56.7534 163.48C55.8425 163.016 55.4767 161.891 55.9544 160.953L64.905 143.371C65.3827 142.433 66.5073 142.067 67.4182 142.53C68.3566 143.008 68.7225 144.133 68.2447 145.071L59.2941 162.653C58.8164 163.592 57.6918 163.957 56.7534 163.48ZM90.4009 171.786C90.6994 172.752 90.167 173.79 89.2008 174.088C88.8991 174.191 88.6138 174.203 88.309 174.148C87.6688 174.033 87.0888 173.583 86.899 172.888L83.9453 163.578L80.0738 162.883L78.6996 170.534C78.5189 171.54 77.584 172.19 76.578 172.01C75.5721 171.829 74.9218 170.894 75.1025 169.888L78.5735 150.561C78.7432 149.616 79.6477 148.961 80.6036 149.069L80.6365 148.886L87.5869 150.135C91.2145 150.786 93.688 154.534 93.0037 158.345C92.5274 160.997 90.3987 163.038 87.8043 163.642L90.4009 171.786ZM81.875 152.853L80.7198 159.286L85.5363 160.151C87.3044 160.468 89.1164 159.315 89.4066 157.699C89.7296 155.9 88.551 154.052 86.9354 153.762L81.875 152.853ZM119.259 174.015C112.915 175.299 106.703 171.152 105.419 164.808C104.135 158.464 108.251 152.258 114.595 150.974C117.449 150.397 120.39 150.876 122.902 152.358C123.796 152.872 124.09 154.014 123.546 154.914C123.025 155.777 121.884 156.072 121.02 155.551C119.299 154.541 117.275 154.224 115.333 154.617C110.992 155.496 108.183 159.73 109.062 164.071C109.941 168.412 114.175 171.22 118.516 170.341C120.519 169.936 122.284 168.82 123.465 167.159C124.052 166.314 125.218 166.141 126.063 166.728C126.879 167.321 127.082 168.481 126.495 169.327C124.739 171.736 122.173 173.425 119.259 174.015ZM146.076 166.731C145.685 166.982 145.193 167.076 144.723 166.974C144.252 166.871 143.818 166.597 143.551 166.18L132.825 149.474C132.272 148.614 132.541 147.485 133.375 146.949C134.235 146.397 135.348 146.64 135.9 147.5L145.622 162.642L153.234 157.644L153.26 157.627C154.094 157.092 155.207 157.334 155.768 158.152C156.321 159.012 156.095 160.15 155.235 160.703L146.102 166.714L146.076 166.731ZM170.99 134.627L165.029 141.179L169.565 145.306L175.526 138.754C176.214 137.998 177.395 137.942 178.151 138.63C178.907 139.318 178.94 140.478 178.252 141.234L171.041 149.161C170.353 149.917 169.216 149.971 168.46 149.283L153.797 135.944C153.041 135.256 152.965 134.098 153.652 133.342L160.864 125.415C161.552 124.659 162.733 124.603 163.489 125.291C164.245 125.979 164.301 127.16 163.613 127.916L157.652 134.468L162.303 138.699L168.264 132.147C168.952 131.391 170.11 131.314 170.889 132.023C171.645 132.711 171.678 133.871 170.99 134.627Z"/>
</mask>
<path d="M35.6172 144.813C31.064 140.212 31.1248 132.744 35.7258 128.191C40.3268 123.638 47.7729 123.677 52.3261 128.278C54.374 130.347 55.5862 133.069 55.7243 135.982C55.7847 137.012 54.9917 137.884 53.9403 137.922C52.9326 137.961 52.0607 137.168 52.0222 136.16C51.9231 134.167 51.0787 132.301 49.6844 130.892C46.569 127.744 41.4882 127.717 38.3401 130.833C35.1921 133.948 35.1656 139.029 38.281 142.177C39.7188 143.63 41.6197 144.494 43.6561 144.57C44.6852 144.598 45.4691 145.478 45.4418 146.507C45.3928 147.514 44.5344 148.32 43.5052 148.293C40.5275 148.146 37.7087 146.926 35.6172 144.813ZM56.7534 163.48C55.8425 163.016 55.4767 161.891 55.9544 160.953L64.905 143.371C65.3827 142.433 66.5073 142.067 67.4182 142.53C68.3566 143.008 68.7225 144.133 68.2447 145.071L59.2941 162.653C58.8164 163.592 57.6918 163.957 56.7534 163.48ZM90.4009 171.786C90.6994 172.752 90.167 173.79 89.2008 174.088C88.8991 174.191 88.6138 174.203 88.309 174.148C87.6688 174.033 87.0888 173.583 86.899 172.888L83.9453 163.578L80.0738 162.883L78.6996 170.534C78.5189 171.54 77.584 172.19 76.578 172.01C75.5721 171.829 74.9218 170.894 75.1025 169.888L78.5735 150.561C78.7432 149.616 79.6477 148.961 80.6036 149.069L80.6365 148.886L87.5869 150.135C91.2145 150.786 93.688 154.534 93.0037 158.345C92.5274 160.997 90.3987 163.038 87.8043 163.642L90.4009 171.786ZM81.875 152.853L80.7198 159.286L85.5363 160.151C87.3044 160.468 89.1164 159.315 89.4066 157.699C89.7296 155.9 88.551 154.052 86.9354 153.762L81.875 152.853ZM119.259 174.015C112.915 175.299 106.703 171.152 105.419 164.808C104.135 158.464 108.251 152.258 114.595 150.974C117.449 150.397 120.39 150.876 122.902 152.358C123.796 152.872 124.09 154.014 123.546 154.914C123.025 155.777 121.884 156.072 121.02 155.551C119.299 154.541 117.275 154.224 115.333 154.617C110.992 155.496 108.183 159.73 109.062 164.071C109.941 168.412 114.175 171.22 118.516 170.341C120.519 169.936 122.284 168.82 123.465 167.159C124.052 166.314 125.218 166.141 126.063 166.728C126.879 167.321 127.082 168.481 126.495 169.327C124.739 171.736 122.173 173.425 119.259 174.015ZM146.076 166.731C145.685 166.982 145.193 167.076 144.723 166.974C144.252 166.871 143.818 166.597 143.551 166.18L132.825 149.474C132.272 148.614 132.541 147.485 133.375 146.949C134.235 146.397 135.348 146.64 135.9 147.5L145.622 162.642L153.234 157.644L153.26 157.627C154.094 157.092 155.207 157.334 155.768 158.152C156.321 159.012 156.095 160.15 155.235 160.703L146.102 166.714L146.076 166.731ZM170.99 134.627L165.029 141.179L169.565 145.306L175.526 138.754C176.214 137.998 177.395 137.942 178.151 138.63C178.907 139.318 178.94 140.478 178.252 141.234L171.041 149.161C170.353 149.917 169.216 149.971 168.46 149.283L153.797 135.944C153.041 135.256 152.965 134.098 153.652 133.342L160.864 125.415C161.552 124.659 162.733 124.603 163.489 125.291C164.245 125.979 164.301 127.16 163.613 127.916L157.652 134.468L162.303 138.699L168.264 132.147C168.952 131.391 170.11 131.314 170.889 132.023C171.645 132.711 171.678 133.871 170.99 134.627Z" fill="#004E64"/>
<path d="M55.7243 135.982L53.7266 136.077C53.7269 136.085 53.7273 136.092 53.7278 136.099L55.7243 135.982ZM53.9403 137.922L53.8674 135.924L53.8638 135.924L53.9403 137.922ZM52.0222 136.16L54.0207 136.084C54.0204 136.076 54.0201 136.069 54.0197 136.061L52.0222 136.16ZM43.6561 144.57L43.5811 146.569C43.5885 146.569 43.5958 146.569 43.6031 146.57L43.6561 144.57ZM45.4418 146.507L47.4394 146.604C47.4402 146.589 47.4407 146.575 47.4411 146.56L45.4418 146.507ZM43.5052 148.293L43.4067 150.29C43.4219 150.291 43.4371 150.291 43.4523 150.292L43.5052 148.293ZM35.6172 144.813L37.0388 143.406C33.2673 139.595 33.3119 133.394 37.1326 129.613L35.7258 128.191L34.319 126.769C28.9378 132.095 28.8606 140.829 34.1957 146.22L35.6172 144.813ZM35.7258 128.191L37.1326 129.613C40.9485 125.836 47.1282 125.868 50.9045 129.684L52.3261 128.278L53.7477 126.871C48.4175 121.485 39.7051 121.439 34.319 126.769L35.7258 128.191ZM52.3261 128.278L50.9045 129.684C52.61 131.408 53.6122 133.664 53.7266 136.077L55.7243 135.982L57.7221 135.888C57.5602 132.473 56.138 129.286 53.7477 126.871L52.3261 128.278ZM55.7243 135.982L53.7278 136.099C53.7253 136.057 53.7431 136.007 53.7748 135.973C53.8069 135.938 53.8472 135.924 53.8674 135.924L53.9403 137.922L54.0131 139.921C56.1706 139.842 57.8477 138.03 57.7209 135.865L55.7243 135.982ZM53.9403 137.922L53.8638 135.924C53.9137 135.922 53.9499 135.941 53.9686 135.959C53.9883 135.977 54.0183 136.02 54.0207 136.084L52.0222 136.16L50.0236 136.237C50.1052 138.369 51.9268 140.001 54.0167 139.921L53.9403 137.922ZM52.0222 136.16L54.0197 136.061C53.8955 133.562 52.8373 131.235 51.106 129.485L49.6844 130.892L48.2628 132.299C49.32 133.367 49.9507 134.771 50.0247 136.26L52.0222 136.16ZM49.6844 130.892L51.106 129.485C47.2136 125.552 40.8665 125.519 36.9333 129.411L38.3401 130.833L39.7469 132.254C42.1099 129.916 45.9244 129.936 48.2628 132.299L49.6844 130.892ZM38.3401 130.833L36.9333 129.411C33.0001 133.303 32.967 139.651 36.8594 143.584L38.281 142.177L39.7025 140.77C37.3641 138.407 37.384 134.593 39.7469 132.254L38.3401 130.833ZM38.281 142.177L36.8594 143.584C38.6407 145.384 41.0174 146.473 43.5811 146.569L43.6561 144.57L43.731 142.572C42.2219 142.515 40.797 141.876 39.7025 140.77L38.281 142.177ZM43.6561 144.57L43.6031 146.57C43.5791 146.569 43.5497 146.563 43.5219 146.549C43.4958 146.537 43.4783 146.522 43.4676 146.511C43.4473 146.489 43.4422 146.466 43.4425 146.454L45.4418 146.507L47.4411 146.56C47.4957 144.5 45.9147 142.629 43.709 142.571L43.6561 144.57ZM45.4418 146.507L43.4442 146.41C43.4464 146.364 43.4672 146.334 43.4812 146.321C43.4966 146.307 43.5257 146.292 43.5582 146.293L43.5052 148.293L43.4523 150.292C45.5678 150.348 47.3375 148.698 47.4394 146.604L45.4418 146.507ZM43.5052 148.293L43.6038 146.295C41.1069 146.172 38.7658 145.151 37.0388 143.406L35.6172 144.813L34.1957 146.22C36.6516 148.701 39.9481 150.119 43.4067 150.29L43.5052 148.293ZM67.4182 142.53L66.5108 144.313L67.4182 142.53ZM56.7534 163.48L57.6607 161.697C57.7534 161.744 57.7503 161.834 57.7367 161.86L55.9544 160.953L54.1721 160.046C53.203 161.949 53.9317 164.287 55.846 165.262L56.7534 163.48ZM55.9544 160.953L57.7367 161.86L66.6873 144.278L64.905 143.371L63.1227 142.464L54.1721 160.046L55.9544 160.953ZM64.905 143.371L66.6873 144.278C66.6738 144.305 66.6035 144.36 66.5108 144.313L67.4182 142.53L68.3255 140.748C66.4112 139.774 64.0917 140.56 63.1227 142.464L64.905 143.371ZM67.4182 142.53L66.5108 144.313C66.5076 144.311 66.4967 144.304 66.485 144.29C66.4741 144.278 66.4658 144.263 66.4606 144.247C66.4555 144.231 66.4534 144.214 66.4546 144.197C66.4559 144.179 66.4607 144.167 66.4624 144.164L68.2447 145.071L70.0271 145.979C71.0059 144.056 70.2483 141.727 68.3255 140.748L67.4182 142.53ZM68.2447 145.071L66.4624 144.164L57.5118 161.746L59.2941 162.653L61.0765 163.56L70.0271 145.979L68.2447 145.071ZM59.2941 162.653L57.5118 161.746C57.5135 161.743 57.5203 161.732 57.5341 161.72C57.5469 161.709 57.5619 161.701 57.5778 161.696C57.5937 161.69 57.6107 161.688 57.6275 161.69C57.6456 161.691 57.6575 161.696 57.6607 161.697L56.7534 163.48L55.846 165.262C57.7688 166.241 60.0976 165.483 61.0765 163.56L59.2941 162.653ZM90.4009 171.786L92.3118 171.196C92.31 171.19 92.3082 171.184 92.3064 171.179L90.4009 171.786ZM89.2008 174.088L88.6105 172.177C88.5915 172.183 88.5727 172.189 88.5539 172.196L89.2008 174.088ZM88.309 174.148L87.9554 176.117L88.309 174.148ZM86.899 172.888L88.8282 172.361C88.8211 172.335 88.8135 172.309 88.8053 172.283L86.899 172.888ZM83.9453 163.578L85.8516 162.973C85.6272 162.266 85.0294 161.741 84.2988 161.61L83.9453 163.578ZM80.0738 162.883L80.4273 160.914C79.3401 160.719 78.3005 161.442 78.1053 162.529L80.0738 162.883ZM80.6036 149.069L80.3776 151.057C81.4254 151.176 82.3857 150.461 82.5721 149.423L80.6036 149.069ZM80.6365 148.886L80.99 146.918C79.9028 146.723 78.8632 147.446 78.668 148.533L80.6365 148.886ZM93.0037 158.345L91.0352 157.991L93.0037 158.345ZM87.8043 163.642L87.3509 161.694C86.8072 161.82 86.3412 162.168 86.0654 162.654C85.7897 163.139 85.7293 163.717 85.8988 164.249L87.8043 163.642ZM81.875 152.853L82.2285 150.885C81.1413 150.69 80.1017 151.413 79.9065 152.5L81.875 152.853ZM80.7198 159.286L78.7513 158.932C78.5561 160.019 79.2791 161.059 80.3663 161.254L80.7198 159.286ZM89.4066 157.699L87.438 157.345L89.4066 157.699ZM90.4009 171.786L88.49 172.377C88.4782 172.338 88.4839 172.297 88.4999 172.266C88.5167 172.234 88.5554 172.194 88.6105 172.177L89.2008 174.088L89.7912 175.999C91.8383 175.366 92.9284 173.192 92.3118 171.196L90.4009 171.786ZM89.2008 174.088L88.5539 172.196C88.5593 172.194 88.5703 172.19 88.5859 172.187C88.6016 172.184 88.6182 172.182 88.6343 172.181C88.6685 172.179 88.6818 172.183 88.6625 172.18L88.309 174.148L87.9554 176.117C88.5531 176.224 89.1866 176.206 89.8478 175.98L89.2008 174.088ZM88.309 174.148L88.6625 172.18C88.6811 172.183 88.7073 172.192 88.7388 172.219C88.7768 172.251 88.8127 172.304 88.8282 172.361L86.899 172.888L84.9697 173.415C85.3879 174.946 86.6541 175.883 87.9554 176.117L88.309 174.148ZM86.899 172.888L88.8053 172.283L85.8516 162.973L83.9453 163.578L82.0389 164.183L84.9926 173.493L86.899 172.888ZM83.9453 163.578L84.2988 161.61L80.4273 160.914L80.0738 162.883L79.7202 164.851L83.5917 165.547L83.9453 163.578ZM80.0738 162.883L78.1053 162.529L76.7311 170.181L78.6996 170.534L80.6681 170.888L82.0423 163.236L80.0738 162.883ZM78.6996 170.534L76.7311 170.181C76.7358 170.154 76.759 170.108 76.8064 170.075C76.8537 170.042 76.9052 170.037 76.9316 170.041L76.578 172.01L76.2245 173.978C78.3177 174.354 80.2922 172.981 80.6681 170.888L78.6996 170.534ZM76.578 172.01L76.9316 170.041C76.9579 170.046 77.0043 170.069 77.0372 170.117C77.0701 170.164 77.0757 170.215 77.071 170.242L75.1025 169.888L73.134 169.535C72.7581 171.628 74.1313 173.602 76.2245 173.978L76.578 172.01ZM75.1025 169.888L77.071 170.242L80.542 150.915L78.5735 150.561L76.605 150.208L73.134 169.535L75.1025 169.888ZM78.5735 150.561L80.542 150.915C80.53 150.981 80.4944 151.02 80.4749 151.034C80.4568 151.047 80.4237 151.062 80.3776 151.057L80.6036 149.069L80.8297 147.082C78.8555 146.858 76.9664 148.196 76.605 150.208L78.5735 150.561ZM80.6036 149.069L82.5721 149.423L82.605 149.24L80.6365 148.886L78.668 148.533L78.6351 148.716L80.6036 149.069ZM80.6365 148.886L80.2829 150.855L87.2333 152.103L87.5869 150.135L87.9404 148.166L80.99 146.918L80.6365 148.886ZM87.5869 150.135L87.2333 152.103C89.6841 152.543 91.5408 155.176 91.0352 157.991L93.0037 158.345L94.9722 158.699C95.8353 153.893 92.7448 149.029 87.9404 148.166L87.5869 150.135ZM93.0037 158.345L91.0352 157.991C90.7139 159.781 89.2459 161.253 87.3509 161.694L87.8043 163.642L88.2578 165.59C91.5515 164.823 94.3409 162.214 94.9722 158.699L93.0037 158.345ZM87.8043 163.642L85.8988 164.249L88.4954 172.394L90.4009 171.786L92.3064 171.179L89.7098 163.034L87.8043 163.642ZM81.875 152.853L79.9065 152.5L78.7513 158.932L80.7198 159.286L82.6883 159.639L83.8435 153.207L81.875 152.853ZM80.7198 159.286L80.3663 161.254L85.1828 162.119L85.5363 160.151L85.8898 158.182L81.0733 157.317L80.7198 159.286ZM85.5363 160.151L85.1828 162.119C87.8777 162.603 90.862 160.909 91.3751 158.053L89.4066 157.699L87.438 157.345C87.3707 157.72 86.7311 158.333 85.8898 158.182L85.5363 160.151ZM89.4066 157.699L91.3751 158.053C91.8628 155.337 90.1544 152.308 87.2889 151.794L86.9354 153.762L86.5818 155.731C86.9476 155.796 87.5964 156.464 87.438 157.345L89.4066 157.699ZM86.9354 153.762L87.2889 151.794L82.2285 150.885L81.875 152.853L81.5215 154.822L86.5818 155.731L86.9354 153.762ZM114.595 150.974L114.199 149.014L114.595 150.974ZM122.902 152.358L121.885 154.081C121.892 154.084 121.898 154.088 121.905 154.092L122.902 152.358ZM123.546 154.914L121.834 153.879L121.832 153.882L123.546 154.914ZM121.02 155.551L122.052 153.838C122.046 153.834 122.039 153.83 122.033 153.827L121.02 155.551ZM115.333 154.617L114.936 152.657L115.333 154.617ZM123.465 167.159L125.095 168.318C125.099 168.312 125.103 168.306 125.107 168.3L123.465 167.159ZM126.063 166.728L127.24 165.111C127.228 165.102 127.216 165.094 127.204 165.085L126.063 166.728ZM126.495 169.327L128.111 170.505C128.12 170.492 128.129 170.48 128.137 170.468L126.495 169.327ZM119.259 174.015L118.862 172.054C113.607 173.118 108.446 169.68 107.379 164.411L105.419 164.808L103.459 165.205C104.961 172.625 112.222 177.48 119.656 175.975L119.259 174.015ZM105.419 164.808L107.379 164.411C106.314 159.149 109.73 154 114.992 152.934L114.595 150.974L114.199 149.014C106.772 150.517 101.956 157.778 103.459 165.205L105.419 164.808ZM114.595 150.974L114.992 152.934C117.369 152.453 119.805 152.853 121.885 154.081L122.902 152.358L123.918 150.636C120.974 148.898 117.529 148.34 114.199 149.014L114.595 150.974ZM122.902 152.358L121.905 154.092C121.868 154.071 121.836 154.028 121.825 153.983C121.813 153.937 121.824 153.896 121.834 153.879L123.546 154.914L125.257 155.949C126.374 154.102 125.779 151.705 123.899 150.624L122.902 152.358ZM123.546 154.914L121.832 153.882C121.858 153.839 121.895 153.819 121.919 153.813C121.945 153.807 121.998 153.805 122.052 153.838L121.02 155.551L119.988 157.264C121.816 158.366 124.179 157.737 125.259 155.946L123.546 154.914ZM121.02 155.551L122.033 153.827C119.875 152.56 117.348 152.168 114.936 152.657L115.333 154.617L115.729 156.577C117.203 156.279 118.723 156.522 120.008 157.276L121.02 155.551ZM115.333 154.617L114.936 152.657C109.512 153.755 106.004 159.044 107.102 164.467L109.062 164.071L111.022 163.674C110.363 160.416 112.471 157.237 115.729 156.577L115.333 154.617ZM109.062 164.071L107.102 164.467C108.199 169.891 113.489 173.4 118.912 172.302L118.516 170.341L118.119 168.381C114.86 169.041 111.682 166.932 111.022 163.674L109.062 164.071ZM118.516 170.341L118.912 172.302C121.394 171.799 123.608 170.409 125.095 168.318L123.465 167.159L121.834 166.001C120.96 167.231 119.644 168.073 118.119 168.381L118.516 170.341ZM123.465 167.159L125.107 168.3C125.094 168.32 125.072 168.341 125.046 168.357C125.022 168.372 125 168.379 124.984 168.381C124.954 168.386 124.933 168.378 124.923 168.371L126.063 166.728L127.204 165.085C125.512 163.91 123.08 164.206 121.822 166.019L123.465 167.159ZM126.063 166.728L124.886 168.345C124.85 168.318 124.836 168.284 124.833 168.266C124.829 168.245 124.833 168.213 124.852 168.186L126.495 169.327L128.137 170.468C129.344 168.729 128.935 166.345 127.24 165.111L126.063 166.728ZM126.495 169.327L124.878 168.149C123.406 170.169 121.269 171.567 118.862 172.054L119.259 174.015L119.656 175.975C123.078 175.282 126.071 173.303 128.111 170.505L126.495 169.327ZM146.076 166.731L144.995 165.048L146.076 166.731ZM144.723 166.974L145.149 165.019L144.723 166.974ZM132.825 149.474L134.508 148.394L132.825 149.474ZM133.375 146.949L134.456 148.632L133.375 146.949ZM135.9 147.5L137.583 146.419L135.9 147.5ZM145.622 162.642L143.939 163.722C144.228 164.172 144.684 164.487 145.206 164.598C145.728 164.709 146.273 164.607 146.72 164.314L145.622 162.642ZM153.234 157.644L152.154 155.961C152.148 155.965 152.142 155.968 152.136 155.972L153.234 157.644ZM153.26 157.627L152.18 155.944L153.26 157.627ZM155.768 158.152L157.451 157.071C157.44 157.054 157.429 157.036 157.417 157.019L155.768 158.152ZM155.235 160.703L154.154 159.02C154.148 159.024 154.142 159.028 154.135 159.032L155.235 160.703ZM146.102 166.714L147.182 168.397C147.189 168.393 147.195 168.389 147.201 168.384L146.102 166.714ZM146.076 166.731L144.995 165.048C145.023 165.03 145.048 165.021 145.069 165.017C145.091 165.013 145.118 165.013 145.149 165.019L144.723 166.974L144.297 168.928C145.294 169.145 146.326 168.946 147.156 168.414L146.076 166.731ZM144.723 166.974L145.149 165.019C145.149 165.02 145.15 165.02 145.153 165.021C145.155 165.022 145.16 165.024 145.168 165.029C145.183 165.039 145.209 165.061 145.234 165.1L143.551 166.18L141.868 167.261C142.453 168.173 143.367 168.725 144.297 168.928L144.723 166.974ZM143.551 166.18L145.234 165.1L134.508 148.394L132.825 149.474L131.142 150.555L141.868 167.261L143.551 166.18ZM132.825 149.474L134.508 148.394C134.534 148.435 134.54 148.488 134.532 148.527C134.524 148.562 134.5 148.603 134.456 148.632L133.375 146.949L132.294 145.266C130.55 146.387 129.981 148.747 131.142 150.555L132.825 149.474ZM133.375 146.949L134.456 148.632C134.433 148.647 134.383 148.661 134.327 148.649C134.271 148.637 134.231 148.603 134.217 148.58L135.9 147.5L137.583 146.419C136.434 144.63 134.084 144.117 132.294 145.266L133.375 146.949ZM135.9 147.5L134.217 148.58L143.939 163.722L145.622 162.642L147.305 161.561L137.583 146.419L135.9 147.5ZM145.622 162.642L146.72 164.314L154.332 159.316L153.234 157.644L152.136 155.972L144.524 160.97L145.622 162.642ZM153.234 157.644L154.315 159.327L154.341 159.31L153.26 157.627L152.18 155.944L152.154 155.961L153.234 157.644ZM153.26 157.627L154.341 159.31C154.291 159.342 154.236 159.346 154.202 159.339C154.171 159.332 154.14 159.313 154.12 159.284L155.768 158.152L157.417 157.019C156.264 155.341 153.953 154.806 152.18 155.944L153.26 157.627ZM155.768 158.152L154.085 159.232C154.074 159.214 154.064 159.179 154.072 159.139C154.076 159.12 154.085 159.097 154.101 159.073C154.117 159.049 154.137 159.031 154.154 159.02L155.235 160.703L156.315 162.386C158.142 161.213 158.577 158.824 157.451 157.071L155.768 158.152ZM155.235 160.703L154.135 159.032L145.002 165.043L146.102 166.714L147.201 168.384L156.334 162.373L155.235 160.703ZM146.102 166.714L145.021 165.031L144.995 165.048L146.076 166.731L147.156 168.414L147.182 168.397L146.102 166.714ZM165.029 141.179L163.55 139.834C163.193 140.226 163.006 140.744 163.031 141.274C163.056 141.804 163.291 142.302 163.683 142.659L165.029 141.179ZM169.565 145.306L168.219 146.786C169.036 147.529 170.301 147.469 171.045 146.652L169.565 145.306ZM175.526 138.754L174.047 137.408L175.526 138.754ZM178.252 141.234L176.773 139.888L178.252 141.234ZM153.797 135.944L152.452 137.423L153.797 135.944ZM153.652 133.342L155.132 134.688L153.652 133.342ZM160.864 125.415L159.385 124.069L160.864 125.415ZM163.489 125.291L162.143 126.77L163.489 125.291ZM163.613 127.916L162.134 126.57L163.613 127.916ZM157.652 134.468L156.173 133.122C155.429 133.939 155.489 135.204 156.306 135.948L157.652 134.468ZM162.303 138.699L160.957 140.179C161.774 140.922 163.039 140.862 163.782 140.045L162.303 138.699ZM168.264 132.147L166.784 130.801L168.264 132.147ZM170.889 132.023L172.235 130.544L170.889 132.023ZM170.99 134.627L169.511 133.281L163.55 139.834L165.029 141.179L166.509 142.525L172.469 135.973L170.99 134.627ZM165.029 141.179L163.683 142.659L168.219 146.786L169.565 145.306L170.911 143.827L166.375 139.7L165.029 141.179ZM169.565 145.306L171.045 146.652L177.006 140.1L175.526 138.754L174.047 137.408L168.086 143.96L169.565 145.306ZM175.526 138.754L177.006 140.1C176.975 140.133 176.935 140.147 176.908 140.148C176.88 140.15 176.839 140.14 176.805 140.109L178.151 138.63L179.497 137.151C177.924 135.72 175.478 135.835 174.047 137.408L175.526 138.754ZM178.151 138.63L176.805 140.109C176.791 140.096 176.774 140.074 176.762 140.047C176.75 140.022 176.745 139.998 176.745 139.978C176.743 139.937 176.758 139.905 176.773 139.888L178.252 141.234L179.732 142.58C181.133 141.04 181.102 138.611 179.497 137.151L178.151 138.63ZM178.252 141.234L176.773 139.888L169.562 147.815L171.041 149.161L172.52 150.507L179.732 142.58L178.252 141.234ZM171.041 149.161L169.562 147.815C169.58 147.795 169.624 147.768 169.681 147.766C169.739 147.763 169.786 147.786 169.806 147.804L168.46 149.283L167.114 150.762C168.687 152.194 171.089 152.08 172.52 150.507L171.041 149.161ZM168.46 149.283L169.806 147.804L155.143 134.465L153.797 135.944L152.452 137.423L167.114 150.762L168.46 149.283ZM153.797 135.944L155.143 134.465C155.16 134.479 155.178 134.51 155.18 134.551C155.181 134.571 155.179 134.595 155.17 134.622C155.16 134.65 155.145 134.673 155.132 134.688L153.652 133.342L152.173 131.996C150.713 133.601 150.911 136.022 152.452 137.423L153.797 135.944ZM153.652 133.342L155.132 134.688L162.343 126.761L160.864 125.415L159.385 124.069L152.173 131.996L153.652 133.342ZM160.864 125.415L162.343 126.761C162.313 126.794 162.273 126.808 162.245 126.809C162.218 126.811 162.177 126.801 162.143 126.77L163.489 125.291L164.835 123.812C163.262 122.38 160.816 122.496 159.385 124.069L160.864 125.415ZM163.489 125.291L162.143 126.77C162.11 126.74 162.096 126.7 162.095 126.672C162.093 126.645 162.103 126.604 162.134 126.57L163.613 127.916L165.092 129.262C166.524 127.689 166.408 125.243 164.835 123.812L163.489 125.291ZM163.613 127.916L162.134 126.57L156.173 133.122L157.652 134.468L159.132 135.814L165.092 129.262L163.613 127.916ZM157.652 134.468L156.306 135.948L160.957 140.179L162.303 138.699L163.649 137.22L158.998 132.989L157.652 134.468ZM162.303 138.699L163.782 140.045L169.743 133.493L168.264 132.147L166.784 130.801L160.823 137.353L162.303 138.699ZM168.264 132.147L169.743 133.493C169.728 133.51 169.693 133.531 169.648 133.533C169.626 133.534 169.604 133.531 169.582 133.523C169.559 133.515 169.546 133.505 169.543 133.502L170.889 132.023L172.235 130.544C170.623 129.077 168.201 129.244 166.784 130.801L168.264 132.147ZM170.889 132.023L169.543 133.502C169.528 133.489 169.511 133.467 169.499 133.44C169.488 133.415 169.483 133.391 169.482 133.371C169.481 133.33 169.496 133.298 169.511 133.281L170.99 134.627L172.469 135.973C173.871 134.433 173.84 132.004 172.235 130.544L170.889 132.023Z" fill="#004E64" mask="url(#path-15-outside-1_2132_509)"/>
<line x1="103.128" y1="51.0005" x2="103.128" y2="141" stroke="#004E64" stroke-width="2"/>
<path d="M153.496 36.0784C153.826 37.4469 152.995 38.8058 151.636 39.095C150.309 39.4346 148.95 38.6039 148.61 37.2763L146.894 30.16L146.853 30.1505L132.866 26.9209C132.744 26.8926 132.662 26.8737 132.59 26.8139L128.181 32.4728C127.565 33.2781 126.542 33.602 125.642 33.3942C125.274 33.3092 124.966 33.1519 124.677 32.9128C123.582 32.0569 123.381 30.5028 124.237 29.4081L142.137 6.36041C142.744 5.59604 143.685 5.25326 144.635 5.42956L144.676 5.439C145.617 5.6562 146.312 6.37671 146.573 7.2985L153.496 36.0784ZM135.963 22.4667L145.573 24.6859L142.888 13.5552L135.963 22.4667Z" fill="#004E64" stroke="#004E64" stroke-width="2" stroke-linejoin="round"/>
<path d="M120.219 31.8399C120.746 33.1052 120.16 34.5726 118.895 35.0989C118.501 35.2767 118.117 35.329 117.699 35.2941C116.821 35.2209 115.981 34.6876 115.636 33.7744L110.46 21.5923L105.148 21.1495L104.273 31.6481C104.158 33.0284 102.98 34.0252 101.599 33.9102C100.219 33.7951 99.2222 32.617 99.3372 31.2367L101.547 4.7185C101.655 3.42187 102.792 2.42152 104.095 2.44594L104.116 2.19497L113.653 2.98978C118.63 3.40462 122.447 8.14504 122.011 13.3734C121.708 17.0123 119.097 20.0378 115.674 21.1845L120.219 31.8399ZM106.295 7.3885L105.559 16.214L112.168 16.7648C114.594 16.9669 116.891 15.1789 117.075 12.962C117.281 10.4943 115.455 8.15194 113.238 7.96718L106.295 7.3885Z" fill="#004E64" stroke="#004E64" stroke-width="2" stroke-linejoin="round"/>
<path d="M92.4455 26.1494L94.8866 28.5349C95.8546 29.4975 95.9011 31.0923 94.8966 32.1025C94.4363 32.6075 93.7655 32.8612 93.1359 32.8629C92.4643 32.8648 91.8341 32.6148 91.371 32.1124L88.8457 29.6431C86.2904 31.4131 83.2294 32.471 79.9136 32.4804C71.2675 32.5046 64.1964 25.4732 64.172 16.7851C64.1477 8.13889 71.1792 1.06784 79.8253 1.04356C88.5135 1.01916 95.5845 8.0506 95.6088 16.6968C95.6188 20.2644 94.4527 23.4995 92.4455 26.1494ZM79.8995 27.4438C81.8302 27.4383 83.5916 26.9297 85.1421 26.044L82.1116 23.0305C81.1435 22.0678 81.1391 20.4729 82.1017 19.5049C83.0642 18.4948 84.6592 18.4903 85.6692 19.4529L88.8259 22.5919C89.9125 20.91 90.5783 18.8934 90.5722 16.7109C90.5557 10.8349 85.7574 6.02157 79.8394 6.03819C73.9633 6.05469 69.1501 10.895 69.1666 16.771C69.1833 22.689 74.0235 27.4603 79.8995 27.4438Z" fill="#004E64" stroke="#004E64" stroke-width="2" stroke-linejoin="round"/>
<path d="M58.3876 36.6148C57.0245 36.8604 55.7083 35.9461 55.4552 34.5416L50.7147 8.22919C50.4617 6.82476 51.376 5.50854 52.7392 5.26295C54.1436 5.00993 55.4598 5.92428 55.7128 7.32871L60.4534 33.6412C60.7064 35.0456 59.792 36.3618 58.3876 36.6148Z" fill="#004E64" stroke="#004E64" stroke-width="2" stroke-linejoin="round"/>
</svg>
